<?xml version="1.0" encoding="UTF-8"?>
<svg width="275px" height="152px" viewBox="0 0 275 152" version="1.1" xmlns="http://www.w3.org/2000/svg" xmlns:xlink="http://www.w3.org/1999/xlink">
    <title>1DB551E3-2A51-4344-8E72-5FD3E8575658</title>
    <defs>
        <rect id="path-1" x="0" y="0" width="257" height="134" rx="5"></rect>
        <filter x="-5.3%" y="-10.1%" width="110.5%" height="120.1%" filterUnits="objectBoundingBox" id="filter-3">
            <feOffset dx="0" dy="0" in="SourceAlpha" result="shadowOffsetOuter1"></feOffset>
            <feGaussianBlur stdDeviation="4.5" in="shadowOffsetOuter1" result="shadowBlurOuter1"></feGaussianBlur>
            <feComposite in="shadowBlurOuter1" in2="SourceAlpha" operator="out" result="shadowBlurOuter1"></feComposite>
            <feColorMatrix values="0 0 0 0 0   0 0 0 0 0   0 0 0 0 0  0 0 0 0.258877841 0" type="matrix" in="shadowBlurOuter1"></feColorMatrix>
        </filter>
    </defs>
    <g id="design_v4" stroke="none" stroke-width="1" fill="none" fill-rule="evenodd">
        <g id="Fin_n_Min_site_v4" transform="translate(-445.000000, -2139.000000)">
            <g id="client-logo" transform="translate(180.000000, 2076.000000)">
                <g id="02-copy" transform="translate(274.000000, 72.000000)">
                    <mask id="mask-2" fill="white">
                        <use xlink:href="#path-1"></use>
                    </mask>
                    <g id="Rectangle-Copy-6">
                        <use fill="black" fill-opacity="1" filter="url(#filter-3)" xlink:href="#path-1"></use>
                        <rect stroke="#EEEEEE" stroke-width="1" stroke-linejoin="square" fill="#FFFFFF" fill-rule="evenodd" x="0.5" y="0.5" width="256" height="133" rx="5"></rect>
                    </g>
                    <g id="company-logos" mask="url(#mask-2)">
                        <g transform="translate(-260.000000, -25.000000)">
                            <g id="Layer_2_1_">
                                <rect id="Rectangle" fill="#1EA2FF" fill-rule="nonzero" x="0" y="0" width="1034" height="376.761134"></rect>
                            </g>
                            <g id="Layer_5" transform="translate(258.848853, 0.000000)">
                                <rect id="Rectangle" fill="#105FF0" fill-rule="nonzero" x="0" y="0" width="258.151147" height="188.380567"></rect>
                            </g>
                            <g id="Layer_6" transform="translate(0.697706, 0.000000)">
                                <rect id="Rectangle" fill="#1EA2FF" fill-rule="nonzero" x="0" y="0" width="258.151147" height="188.380567"></rect>
                            </g>
                            <g id="Layer_8" transform="translate(517.000000, 0.000000)">
                                <rect id="Rectangle" fill="#FFFFFF" fill-rule="nonzero" x="0" y="0" width="258.5" height="188.380567"></rect>
                            </g>
                            <g id="Layer_9" transform="translate(294.431849, 67.677463)">
                                <polygon id="Path" fill="#264366" fill-rule="nonzero" points="19.4877148 6.77771351 30.9683928 0.694014238 42.2135696 6.71864847 42.2135696 26.0329171 30.9683928 31.4078358 19.4877148 25.6194618"></polygon>
                                <path d="M33.6766553,0.753079279 C31.9692724,-0.251026426 29.9086379,-0.251026426 28.201255,0.753079279 L18.8989621,6.1870631 L18.8989621,26.3282423 L28.201255,31.7622261 C29.0255088,32.2347464 29.9675132,32.4710066 30.9683928,32.4710066 C31.9103971,32.4710066 32.8524015,32.2347464 33.6766553,31.7622261 L42.9789482,26.3282423 L42.9789482,6.1870631 L33.6766553,0.753079279 Z M29.1432594,2.3478354 C30.2618895,1.69811994 31.674896,1.69811994 32.7935262,2.3478354 L40.9183137,7.07303872 L32.7935262,11.798242 C31.674896,12.4479575 30.3207648,12.4479575 29.1432594,11.798242 L21.0184719,7.07303872 L29.1432594,2.3478354 Z M41.2715653,25.2650715 L32.8524015,30.16747 C31.7337713,30.8171854 30.3796401,30.8171854 29.2610099,30.16747 L20.9007214,25.2650715 L20.9007214,21.1895836 L28.3778808,25.6194618 C29.2021346,26.0919821 30.144139,26.3282423 31.0861433,26.3282423 C32.0281477,26.3282423 32.970152,26.0919821 33.7944058,25.6194618 L41.2715653,21.2486487 L41.2715653,25.2650715 L41.2715653,25.2650715 Z M41.2715653,19.1813722 L32.8524015,24.0837707 C31.7337713,24.7334861 30.3796401,24.7334861 29.2021346,24.0837707 L20.9007214,19.1813722 L20.9007214,19.2404373 L20.9007214,15.1058844 L28.3778808,19.5357625 C29.2021346,20.0082828 30.144139,20.244543 31.0861433,20.244543 C32.0281477,20.244543 32.970152,20.0082828 33.7944058,19.5357625 L41.2715653,15.1649494 L41.2715653,19.1813722 L41.2715653,19.1813722 Z M41.2715653,13.0386079 L32.8524015,17.9410064 C31.7337713,18.5907218 30.3796401,18.5907218 29.2021346,17.9410064 L20.9007214,13.0386079 L20.9007214,13.097673 L20.9007214,8.96312005 L28.3778808,13.3929982 C29.2021346,13.8655185 30.144139,14.1017787 31.0861433,14.1017787 C32.0281477,14.1017787 32.970152,13.8655185 33.7944058,13.3929982 L41.2715653,9.02218509 L41.2715653,13.0386079 L41.2715653,13.0386079 Z" id="Shape" fill="#3F79B2" fill-rule="nonzero"></path>
                                <polygon id="Path" fill="#22AEDF" fill-rule="nonzero" points="0.647627986 21.1305186 0.647627986 34.3020229 12.0694306 40.0313319 23.1968569 34.1838928 23.1968569 21.1305186 11.8928048 15.3421445"></polygon>
                                <path d="M14.7776931,15.1649494 C13.0703103,14.1608437 11.0096758,14.1608437 9.30229289,15.1649494 L0,20.5989332 L0,34.5973481 L9.30229289,40.0313319 C10.1265467,40.5038522 11.068551,40.7401124 12.0105554,40.7401124 C12.9525597,40.7401124 13.8945641,40.5038522 14.7188179,40.0313319 L24.0211107,34.5973481 L24.0211107,20.5989332 L14.7776931,15.1649494 Z M10.2442972,16.7597055 C11.3629274,16.1099901 12.7759339,16.1099901 13.8945641,16.7597055 L22.0193515,21.4849089 L13.8945641,26.2101122 C12.7759339,26.8598276 11.4218027,26.8598276 10.2442972,26.2101122 L2.11950977,21.4849089 L10.2442972,16.7597055 Z M22.3726031,33.5341773 L13.9534393,38.4365758 C12.8348092,39.0862912 11.4806779,39.0862912 10.3620478,38.4365758 L2.00175923,33.5341773 L2.00175923,29.4586895 L9.4789187,33.8885676 C10.3031725,34.3610879 11.1863016,34.5973481 12.1871812,34.5973481 C13.1291855,34.5973481 14.0711899,34.3610879 14.9543189,33.8885676 L22.4903537,29.5177545 L22.4903537,33.5341773 L22.3726031,33.5341773 Z M22.3726031,27.450478 L13.8945641,32.3528765 C12.7759339,33.0025919 11.3629274,33.0025919 10.2442972,32.3528765 L1.94288396,27.450478 L1.94288396,27.5095431 L1.94288396,23.3749902 L9.42004343,27.8048683 C10.2442972,28.2773886 11.1274263,28.5136488 12.1283059,28.5136488 C13.0703103,28.5136488 14.0123146,28.2773886 14.8954437,27.8048683 L22.4314784,23.4340552 L22.3726031,27.450478 L22.3726031,27.450478 Z" id="Shape" fill="#73D8F4" fill-rule="nonzero"></path>
                                <polygon id="Path" fill="#F9AD26" fill-rule="nonzero" points="22.0193515 33.3569822 22.0193515 46.5284865 33.4411542 52.3168605 44.5685805 46.4694214 44.5685805 33.3569822 33.2645284 27.5686081"></polygon>
                                <path d="M36.1494167,27.450478 C34.4420338,26.4463723 32.3813993,26.4463723 30.6740164,27.450478 L21.3717235,32.8844619 L21.3717235,46.8828767 L30.6740164,52.3168605 C31.4982702,52.7893809 32.4402746,53.025641 33.3822789,53.025641 C34.3242833,53.025641 35.2662876,52.7893809 36.0905414,52.3168605 L45.3928343,46.8828767 L45.3928343,32.8844619 L36.1494167,27.450478 Z M31.6160208,28.9861691 C32.7346509,28.3364537 34.1476574,28.3364537 35.2662876,28.9861691 L43.3910751,33.7113724 L35.2662876,38.4365758 C34.1476574,39.0862912 32.7935262,39.0862912 31.6160208,38.4365758 L23.4912333,33.7113724 L31.6160208,28.9861691 Z M43.803202,45.819706 L35.3251629,50.7221044 C34.2065327,51.3718199 32.7935262,51.3718199 31.6160208,50.7221044 L23.1968569,45.819706 L23.1968569,41.7442181 L30.7328917,46.1740962 C31.5571455,46.6466165 32.4991498,46.8828767 33.4411542,46.8828767 C34.3831585,46.8828767 35.3840381,46.6466165 36.2082919,46.1740962 L43.7443267,41.8032831 L43.7443267,45.819706 L43.803202,45.819706 Z M43.803202,39.6769416 L35.3251629,44.5793401 C34.2065327,45.2290555 32.7935262,45.2290555 31.674896,44.5793401 L23.2557322,39.6769416 L23.1379817,39.7360067 L23.1379817,35.6014538 L30.6740164,40.0313319 C31.4982702,40.5038522 32.4402746,40.7401124 33.3822789,40.7401124 C34.3242833,40.7401124 35.3251629,40.5038522 36.1494167,40.0313319 L43.6854514,35.6605188 L43.6854514,39.6769416 L43.803202,39.6769416 Z" id="Shape" fill="#F9D332" fill-rule="nonzero"></path>
                                <g id="Group" transform="translate(57.403390, 12.684218)" fill="#89FBFB" fill-rule="nonzero">
                                    <path d="M12.3049317,10.6907725 C12.1283059,12.3445937 11.5395532,13.6440246 10.4797983,14.5890653 C9.42004343,15.5341059 8.00703692,16.0066263 6.24077877,16.0066263 C5.00439807,16.0066263 3.94464319,15.711301 3.00263884,15.1206506 C2.0606345,14.5300002 1.35413124,13.7030896 0.8242538,12.6399189 C0.294376357,11.5767481 0.0588752714,10.3363823 0,8.85975623 L0,7.38313019 C0,5.90650415 0.235501086,4.60707324 0.765378529,3.54390249 C1.29525597,2.4216667 2.00175923,1.59475612 3.00263884,0.945040664 C3.94464319,0.354390249 5.06327334,0.0590650415 6.35852932,0.0590650415 C8.06591219,0.0590650415 9.42004343,0.531585374 10.4797983,1.47662604 C11.5395532,2.4216667 12.1283059,3.72109762 12.3049317,5.43398382 L9.65554452,5.43398382 C9.53779397,4.31174803 9.18454235,3.54390249 8.71354017,3.01231712 C8.242538,2.48073174 7.4182842,2.24447158 6.41740459,2.24447158 C5.23989916,2.24447158 4.35677009,2.65792687 3.7091421,3.54390249 C3.06151412,4.42987811 2.76713776,5.67024399 2.76713776,7.32406515 L2.76713776,8.6825611 C2.76713776,10.3363823 3.06151412,11.6358132 3.65026683,12.5217888 C4.23901954,13.4077644 5.12214862,13.8212197 6.29965404,13.8212197 C7.35940893,13.8212197 8.12478746,13.5849595 8.6546649,13.1124392 C9.18454235,12.6399189 9.53779397,11.8720733 9.65554452,10.7498376 L12.3049317,10.7498376 L12.3049317,10.6907725 Z" id="Path"></path>
                                    <path d="M27.0237496,8.3872359 C27.0237496,9.92292698 26.7882485,11.2223579 26.2583711,12.4036587 C25.7284936,13.5258945 24.9631151,14.4118701 24.0211107,15.0615856 C23.0202311,15.652236 21.901601,16.0066263 20.6652203,16.0066263 C19.4288396,16.0066263 18.3102094,15.711301 17.3093298,15.0615856 C16.3084502,14.4709352 15.5430717,13.5849595 15.0131942,12.4627238 C14.4833168,11.340488 14.1889404,10.0410571 14.1889404,8.50536598 L14.1889404,7.61939036 C14.1889404,6.08369928 14.4833168,4.78426836 15.0131942,3.60296753 C15.5430717,2.4216667 16.3084502,1.53569108 17.2504545,0.945040664 C18.2513341,0.354390249 19.311089,0 20.606345,0 C21.901601,0 22.9613559,0.295325208 23.9622355,0.885975623 C24.9631151,1.47662604 25.6696183,2.36260166 26.1994958,3.48483745 C26.7293732,4.60707324 27.0237496,5.96556919 27.0237496,7.44219523 L27.0237496,8.3872359 Z M24.3743624,7.56032531 C24.3743624,5.84743911 24.079986,4.5480082 23.432358,3.60296753 C22.78473,2.65792687 21.8427257,2.24447158 20.6652203,2.24447158 C19.4877148,2.24447158 18.6045858,2.71699191 17.9569578,3.60296753 C17.3093298,4.48894316 16.9560782,5.78837407 16.9560782,7.50126027 L16.9560782,8.3872359 C16.9560782,10.1001221 17.3093298,11.399553 17.9569578,12.3445937 C18.6045858,13.2896343 19.5465901,13.7621547 20.7240955,13.7621547 C21.901601,13.7621547 22.8436053,13.2896343 23.4912333,12.4036587 C24.1388613,11.5176831 24.4332376,10.1591871 24.4332376,8.44630094 L24.4332376,7.56032531 L24.3743624,7.56032531 Z" id="Shape"></path>
                                    <polygon id="Path" points="41.860318 11.8720733 44.2153289 0.177195125 46.8647161 0.177195125 43.2733245 15.711301 40.7416878 15.711301 37.7979243 4.37081307 34.7952854 15.711301 32.2047735 15.711301 28.6133819 0.177195125 31.2627691 0.177195125 33.6766553 11.8130083 36.6204188 0.177195125 38.8576792 0.177195125"></polygon>
                                    <path d="M61.171407,8.3872359 C61.171407,9.92292698 60.9359059,11.2223579 60.4060285,12.4036587 C59.8761511,13.5258945 59.1107725,14.4118701 58.1687682,15.0615856 C57.1678886,15.652236 56.0492584,16.0066263 54.8128777,16.0066263 C53.576497,16.0066263 52.4578669,15.711301 51.4569872,15.0615856 C50.4561076,14.4709352 49.6907291,13.5849595 49.1608517,12.4627238 C48.6309742,11.340488 48.3365979,10.0410571 48.3365979,8.50536598 L48.3365979,7.61939036 C48.3365979,6.08369928 48.6309742,4.78426836 49.1608517,3.60296753 C49.6907291,2.4216667 50.4561076,1.53569108 51.398112,0.945040664 C52.3989916,0.354390249 53.4587465,0 54.7540024,0 C56.0492584,0 57.1090133,0.295325208 58.1098929,0.885975623 C59.1107725,1.47662604 59.8172758,2.36260166 60.3471532,3.48483745 C60.8770307,4.60707324 61.171407,5.96556919 61.171407,7.44219523 L61.171407,8.3872359 Z M58.5220198,7.56032531 C58.5220198,5.84743911 58.2276435,4.5480082 57.5800155,3.60296753 C56.9323875,2.65792687 55.9903831,2.24447158 54.8128777,2.24447158 C53.6353723,2.24447158 52.7522432,2.71699191 52.1046152,3.60296753 C51.4569872,4.48894316 51.1037356,5.78837407 51.1037356,7.50126027 L51.1037356,8.3872359 C51.1037356,10.1001221 51.4569872,11.399553 52.1046152,12.3445937 C52.7522432,13.2896343 53.6942476,13.7621547 54.871753,13.7621547 C56.0492584,13.7621547 56.9912628,13.2896343 57.6388907,12.4036587 C58.2865187,11.5176831 58.5808951,10.1591871 58.5808951,8.44630094 L58.5808951,7.56032531 L58.5220198,7.56032531 Z" id="Shape"></path>
                                    <path d="M69.5316956,9.74573185 L66.5290567,9.74573185 L66.5290567,15.711301 L63.8207942,15.711301 L63.8207942,0.177195125 L69.2373192,0.177195125 C71.0035774,0.177195125 72.4165839,0.590650415 73.3585882,1.35849595 C74.3005926,2.18540654 74.83047,3.30764233 74.83047,4.8433334 C74.83047,5.90650415 74.5949689,6.73341473 74.0650915,7.44219523 C73.535214,8.15097573 72.887586,8.6825611 72.004457,9.03695135 L75.478098,15.4750409 L75.478098,15.593171 L72.5932097,15.593171 L69.5316956,9.74573185 Z M66.5290567,7.61939036 L69.2961945,7.61939036 C70.1793236,7.61939036 70.8858268,7.38313019 71.4157043,6.91060986 C71.9455817,6.43808953 72.1810828,5.84743911 72.1810828,5.02052853 C72.1810828,4.19361795 71.9455817,3.54390249 71.4745795,3.07138216 C71.0035774,2.59886183 70.2970741,2.36260166 69.3550698,2.36260166 L66.5290567,2.36260166 L66.5290567,7.61939036 Z" id="Shape"></path>
                                    <polygon id="Path" points="81.8955026 9.03695135 80.1292444 10.9270327 80.1292444 15.7703661 77.4209819 15.7703661 77.4209819 0.236260166 80.1292444 0.236260166 80.1292444 7.50126027 81.6011262 5.67024399 86.1345221 0.236260166 89.3726621 0.236260166 83.6028854 7.08780498 89.6670384 15.711301 86.4877738 15.711301"></polygon>
                                    <polygon id="Path" points="93.9649332 15.711301 91.315546 15.711301 91.315546 0.177195125 93.9649332 0.177195125"></polygon>
                                    <polygon id="Path" points="109.56688 15.711301 106.858618 15.711301 99.9702109 4.72520332 99.9702109 15.711301 97.2619484 15.711301 97.2619484 0.177195125 99.9702109 0.177195125 106.858618 11.2223579 106.858618 0.177195125 109.508005 0.177195125 109.508005 15.711301"></polygon>
                                    <path d="M124.580074,13.7030896 C123.991322,14.4118701 123.225943,15.0025205 122.225064,15.3569108 C121.224184,15.711301 120.105554,15.9475612 118.869173,15.9475612 C117.573917,15.9475612 116.455287,15.652236 115.454407,15.0615856 C114.453528,14.4709352 113.688149,13.6440246 113.158272,12.5217888 C112.628394,11.399553 112.334018,10.1591871 112.334018,8.6825611 L112.334018,7.44219523 C112.334018,5.07959357 112.863895,3.24857728 113.982526,1.94914637 C115.101156,0.649715457 116.690788,0 118.692547,0 C120.39993,0 121.754061,0.413455291 122.813816,1.29943091 C123.814696,2.12634149 124.462324,3.36670737 124.63895,4.96146349 L121.989562,4.96146349 C121.695186,3.07138216 120.635431,2.18540654 118.751423,2.18540654 C117.573917,2.18540654 116.631913,2.59886183 115.984285,3.48483745 C115.336657,4.37081307 115.04228,5.61117894 115.04228,7.32406515 L115.04228,8.50536598 C115.04228,10.1591871 115.395532,11.4586181 116.102035,12.4036587 C116.808539,13.3486994 117.809418,13.7621547 119.045799,13.7621547 C120.39993,13.7621547 121.40081,13.4668295 121.989562,12.817114 L121.989562,9.80479689 L118.810298,9.80479689 L118.810298,7.73752044 L124.697825,7.73752044 L124.697825,13.7030896 L124.580074,13.7030896 Z" id="Path"></path>
                                </g>
                            </g>
                            <g id="Group" transform="translate(350.946019, 106.748988)" fill="#FFFFFF" fill-rule="nonzero">
                                <path d="M3.76928449,5.08982102 C3.76928449,4.80387602 3.65149435,4.57512002 3.47480914,4.40355302 C3.29812393,4.23198602 2.88585844,4.06041902 2.35580281,3.94604102 C1.82574718,3.77447402 1.35458661,3.60290702 1.06011126,3.43134001 C0.412265491,3.03101701 0.11779014,2.57350501 0.11779014,1.94442601 C0.11779014,1.42972501 0.353370421,0.972213004 0.765635912,0.629079003 C1.23679647,0.285945001 1.82574718,0.114378 2.53248802,0.114378 C3.00364858,0.114378 3.41591407,0.171567001 3.82817956,0.343134001 C4.24044505,0.514701002 4.47602533,0.743457003 4.71160561,1.086591 C4.9471859,1.42972501 5.00608097,1.77285901 5.00608097,2.11599301 L3.82817956,2.11599301 C3.82817956,1.77285901 3.71038942,1.48691401 3.47480914,1.31534701 C3.23922886,1.14378 2.94475351,1.029402 2.53248802,1.029402 C2.12022253,1.029402 1.82574718,1.086591 1.64906197,1.25815801 C1.41348168,1.42972501 1.35458661,1.65848101 1.35458661,1.94442601 C1.35458661,2.17318201 1.47237675,2.40193801 1.70795704,2.57350501 C1.94353732,2.74507201 2.29690774,2.91663901 2.82696337,3.03101701 C3.357019,3.14539501 3.76928449,3.37415101 4.12265491,3.54571802 C4.41713026,3.71728502 4.65271054,3.94604102 4.82939575,4.23198602 C5.00608097,4.46074202 5.06497604,4.80387602 5.06497604,5.14701002 C5.06497604,5.71890002 4.82939575,6.11922303 4.41713026,6.46235703 C4.00486477,6.80549103 3.41591407,6.97705803 2.65027816,6.97705803 C2.1791176,6.97705803 1.70795704,6.86268003 1.29569154,6.69111303 C0.883426053,6.51954603 0.530055632,6.29079003 0.353370421,5.94765603 C0.11779014,5.66171102 0,5.26138802 0,4.86106502 L1.1779014,4.86106502 C1.1779014,5.26138802 1.29569154,5.54733302 1.59016689,5.71890002 C1.82574718,5.94765603 2.23801267,6.00484503 2.70917323,6.00484503 C3.12143872,6.00484503 3.41591407,5.94765603 3.65149435,5.77608902 C3.65149435,5.60452202 3.76928449,5.37576602 3.76928449,5.08982102 Z" id="Path"></path>
                                <polygon id="Path" points="12.603545 6.80549103 11.4256436 6.80549103 11.4256436 3.83166302 8.36309997 3.83166302 8.36309997 6.80549103 7.18519856 6.80549103 7.18519856 0.171567001 8.36309997 0.171567001 8.36309997 2.91663901 11.4256436 2.91663901 11.4256436 0.171567001 12.603545 0.171567001"></polygon>
                                <path d="M19.0820027,5.26138802 L16.4317246,5.26138802 L15.9016689,6.80549103 L14.6648725,6.80549103 L17.2562556,0.171567001 L18.3163668,0.171567001 L20.9077499,6.80549103 L19.6709534,6.80549103 L19.0820027,5.26138802 Z M16.785095,4.34636402 L18.7875274,4.34636402 L17.7863112,1.60129201 L16.785095,4.34636402 Z" id="Shape"></path>
                                <path d="M25.3248802,4.23198602 L24.0291886,4.23198602 L24.0291886,6.80549103 L22.8512872,6.80549103 L22.8512872,0.171567001 L25.2659851,0.171567001 C26.031621,0.171567001 26.6794668,0.343134001 27.0917323,0.686268003 C27.5039978,1.029402 27.7395781,1.54410301 27.7395781,2.17318201 C27.7395781,2.63069401 27.6217879,2.97382801 27.3862076,3.31696201 C27.1506274,3.66009602 26.856152,3.83166302 26.4438865,4.00323002 L27.9751583,6.74830203 L27.9751583,6.80549103 L26.6794668,6.80549103 L25.3248802,4.23198602 Z M24.0291886,3.31696201 L25.2659851,3.31696201 C25.6782506,3.31696201 25.9727259,3.20258401 26.2083062,3.03101701 C26.4438865,2.85945001 26.5616767,2.57350501 26.5616767,2.23037101 C26.5616767,1.88723701 26.4438865,1.60129201 26.2672013,1.42972501 C26.031621,1.25815801 25.7371457,1.14378 25.3248802,1.14378 L24.0880837,1.14378 L24.0880837,3.31696201 L24.0291886,3.31696201 Z" id="Shape"></path>
                                <polygon id="Path" points="33.9824555 3.83166302 31.1554921 3.83166302 31.1554921 5.89046703 34.4536161 5.89046703 34.4536161 6.80549103 29.9775907 6.80549103 29.9775907 0.171567001 34.394721 0.171567001 34.394721 1.086591 31.1554921 1.086591 31.1554921 2.91663901 33.9824555 2.91663901"></polygon>
                                <path d="M36.6327337,6.80549103 L36.6327337,0.171567001 L38.635166,0.171567001 C39.2241167,0.171567001 39.7541724,0.285945001 40.2253329,0.571890002 C40.6964935,0.857835004 41.0498639,1.20096901 41.2854442,1.65848101 C41.5210245,2.11599301 41.6977097,2.68788301 41.6977097,3.31696201 L41.6977097,3.66009602 C41.6977097,4.28917502 41.5799195,4.86106502 41.2854442,5.31857702 C40.9909688,5.77608902 40.6375984,6.17641203 40.1664379,6.40516803 C39.6952773,6.69111303 39.1652217,6.80549103 38.5173759,6.80549103 L36.6327337,6.80549103 Z M37.8106351,1.086591 L37.8106351,5.89046703 L38.576271,5.89046703 C39.2241167,5.89046703 39.6952773,5.71890002 39.9897527,5.31857702 C40.3431231,4.91825402 40.5198083,4.40355302 40.5198083,3.71728502 L40.5198083,3.37415101 C40.5198083,2.63069401 40.3431231,2.11599301 40.0486477,1.71567001 C39.7541724,1.31534701 39.2830118,1.14378 38.635166,1.14378 L37.8106351,1.14378 L37.8106351,1.086591 Z" id="Shape"></path>
                                <path d="M53.1233533,3.66009602 C53.1233533,4.28917502 53.0055632,4.86106502 52.7699829,5.37576602 C52.5344026,5.89046703 52.1810322,6.23360103 51.7687667,6.51954603 C51.3565012,6.80549103 50.8264456,6.91986903 50.2963899,6.91986903 C49.7663343,6.91986903 49.2362787,6.80549103 48.8240132,6.51954603 C48.4117477,6.23360103 48.0583773,5.89046703 47.822797,5.37576602 C47.5872167,4.86106502 47.4694266,4.34636402 47.4694266,3.71728502 L47.4694266,3.31696201 C47.4694266,2.68788301 47.5872167,2.11599301 47.822797,1.60129201 C48.0583773,1.086591 48.4117477,0.743457003 48.8240132,0.457512002 C49.2362787,0.171567001 49.7663343,0.0571890002 50.2963899,0.0571890002 C50.8264456,0.0571890002 51.3565012,0.171567001 51.7687667,0.457512002 C52.1810322,0.743457003 52.5344026,1.086591 52.7699829,1.60129201 C53.0055632,2.11599301 53.1233533,2.63069401 53.1233533,3.31696201 L53.1233533,3.66009602 Z M51.9454519,3.31696201 C51.9454519,2.57350501 51.8276618,2.00161501 51.5331864,1.60129201 C51.2387111,1.20096901 50.8264456,1.029402 50.2963899,1.029402 C49.7663343,1.029402 49.3540688,1.20096901 49.1184885,1.60129201 C48.8240132,2.00161501 48.706223,2.57350501 48.647328,3.25977301 L48.647328,3.66009602 C48.647328,4.40355302 48.7651181,4.97544302 49.0595935,5.37576602 C49.3540688,5.77608902 49.7663343,5.94765603 50.2963899,5.94765603 C50.8264456,5.94765603 51.2387111,5.77608902 51.5331864,5.37576602 C51.8276618,4.97544302 51.9454519,4.40355302 51.9454519,3.66009602 L51.9454519,3.31696201 L51.9454519,3.31696201 Z" id="Shape"></path>
                                <polygon id="Path" points="59.4251258 4.00323002 56.6570575 4.00323002 56.6570575 6.80549103 55.4791561 6.80549103 55.4791561 0.171567001 59.8373913 0.171567001 59.8373913 1.086591 56.6570575 1.086591 56.6570575 3.08820601 59.4251258 3.08820601"></polygon>
                                <polygon id="Path" points="65.9035835 4.00323002 63.1355152 4.00323002 63.1355152 6.80549103 61.9576138 6.80549103 61.9576138 0.171567001 66.315849 0.171567001 66.315849 1.086591 63.1355152 1.086591 63.1355152 3.08820601 65.9035835 3.08820601"></polygon>
                                <polygon id="Path" points="69.672868 6.80549103 68.4949666 6.80549103 68.4949666 0.171567001 69.672868 0.171567001"></polygon>
                                <path d="M77.5059124,4.63230902 C77.4470173,5.31857702 77.1525419,5.89046703 76.6813814,6.29079003 C76.2102208,6.69111303 75.562375,6.86268003 74.7967391,6.86268003 C74.2666835,6.86268003 73.7955229,6.74830203 73.3832574,6.46235703 C72.970992,6.23360103 72.6765166,5.83327802 72.4409363,5.37576602 C72.205356,4.91825402 72.0875659,4.40355302 72.0875659,3.77447402 L72.0875659,3.14539501 C72.0875659,2.51631601 72.205356,1.94442601 72.4409363,1.48691401 C72.6765166,1.029402 72.970992,0.629079003 73.4421525,0.400323002 C73.9133131,0.171567001 74.3844736,0 74.9145293,0 C75.6801652,0 76.2691159,0.171567001 76.7402764,0.571890002 C77.211437,0.972213004 77.4470173,1.54410301 77.5648074,2.23037101 L76.386906,2.23037101 C76.328011,1.77285901 76.2102208,1.42972501 75.9746405,1.20096901 C75.7390602,0.972213004 75.3856898,0.857835004 74.9734243,0.857835004 C74.4433687,0.857835004 74.0311032,1.029402 73.7955229,1.42972501 C73.5599427,1.83004801 73.3832574,2.34474901 73.3832574,3.03101701 L73.3832574,3.60290702 C73.3832574,4.34636402 73.5010476,4.86106502 73.7955229,5.26138802 C74.0311032,5.66171102 74.4433687,5.83327802 74.9734243,5.83327802 C75.4445849,5.83327802 75.7979553,5.71890002 76.0335356,5.54733302 C76.2691159,5.37576602 76.4458011,5.03263202 76.5046962,4.51793102 L77.5059124,4.51793102 L77.5059124,4.63230902 Z" id="Path"></path>
                                <polygon id="Path" points="83.7487898 3.83166302 80.9218264 3.83166302 80.9218264 5.89046703 84.2199504 5.89046703 84.2199504 6.80549103 79.743925 6.80549103 79.743925 0.171567001 84.1610553 0.171567001 84.1610553 1.086591 80.9218264 1.086591 80.9218264 2.91663901 83.7487898 2.91663901"></polygon>
                                <path d="M93.5253714,5.08982102 C93.5253714,4.80387602 93.4075813,4.57512002 93.2308961,4.40355302 C93.0542109,4.23198602 92.6419454,4.06041902 92.1118898,3.94604102 C91.5818341,3.77447402 91.1106736,3.60290702 90.8161982,3.43134001 C90.1683524,3.03101701 89.8738771,2.57350501 89.8738771,1.94442601 C89.8738771,1.42972501 90.1094574,0.972213004 90.5217229,0.629079003 C90.9928834,0.285945001 91.5818341,0.114378 92.288575,0.114378 C92.7597355,0.114378 93.172001,0.171567001 93.5842665,0.343134001 C93.996532,0.514701002 94.2321123,0.743457003 94.4676926,1.086591 C94.7032728,1.42972501 94.7621679,1.77285901 94.7621679,2.11599301 L93.5842665,2.11599301 C93.5842665,1.77285901 93.4664764,1.48691401 93.2308961,1.31534701 C92.9953158,1.14378 92.7008405,1.029402 92.288575,1.029402 C91.8763095,1.029402 91.5818341,1.086591 91.4051489,1.25815801 C91.1695686,1.42972501 91.1106736,1.65848101 91.1106736,1.94442601 C91.1106736,2.17318201 91.2284637,2.40193801 91.464044,2.57350501 C91.6996243,2.74507201 92.0529947,2.91663901 92.5830503,3.03101701 C93.113106,3.14539501 93.5253714,3.37415101 93.8787419,3.54571802 C94.1732172,3.71728502 94.4087975,3.94604102 94.5854827,4.23198602 C94.7621679,4.46074202 94.821063,4.80387602 94.821063,5.14701002 C94.821063,5.71890002 94.5854827,6.11922303 94.1732172,6.46235703 C93.7609517,6.80549103 93.172001,6.97705803 92.4063651,6.97705803 C91.9352045,6.97705803 91.464044,6.86268003 91.0517785,6.69111303 C90.639513,6.51954603 90.2861426,6.29079003 90.1094574,5.94765603 C89.8738771,5.66171102 89.756087,5.26138802 89.756087,4.86106502 L90.9339884,4.86106502 C90.9339884,5.26138802 91.0517785,5.54733302 91.3462538,5.71890002 C91.5818341,5.94765603 91.9940996,6.00484503 92.4652602,6.00484503 C92.8775257,6.00484503 93.172001,5.94765603 93.4075813,5.77608902 C93.4075813,5.60452202 93.5253714,5.37576602 93.5253714,5.08982102 Z" id="Path"></path>
                                <path d="M98.1191869,4.34636402 L98.1191869,6.80549103 L96.9412855,6.80549103 L96.9412855,0.171567001 L99.5326686,0.171567001 C100.298305,0.171567001 100.887255,0.343134001 101.358416,0.743457003 C101.829576,1.14378 102.006262,1.65848101 102.006262,2.28756001 C102.006262,2.91663901 101.770681,3.43134001 101.358416,3.83166302 C100.94615,4.17479702 100.298305,4.40355302 99.5326686,4.40355302 L98.1191869,4.40355302 L98.1191869,4.34636402 Z M98.1191869,3.43134001 L99.5326686,3.43134001 C99.9449341,3.43134001 100.298305,3.31696201 100.47499,3.14539501 C100.71057,2.97382801 100.82836,2.68788301 100.82836,2.28756001 C100.82836,1.94442601 100.71057,1.65848101 100.47499,1.42972501 C100.239409,1.20096901 99.9449341,1.086591 99.5326686,1.086591 L98.0602918,1.086591 L98.0602918,3.43134001 L98.1191869,3.43134001 Z" id="Shape"></path>
                                <path d="M107.247923,5.26138802 L104.597645,5.26138802 L104.067589,6.80549103 L102.830793,6.80549103 L105.422176,0.171567001 L106.482287,0.171567001 L109.07367,6.80549103 L107.836873,6.80549103 L107.247923,5.26138802 Z M104.89212,4.34636402 L106.894552,4.34636402 L105.893336,1.60129201 L104.89212,4.34636402 Z" id="Shape"></path>
                                <path d="M116.082183,4.63230902 C116.023288,5.31857702 115.728813,5.89046703 115.257652,6.29079003 C114.786492,6.69111303 114.138646,6.86268003 113.37301,6.86268003 C112.842954,6.86268003 112.371794,6.74830203 111.959528,6.46235703 C111.547263,6.23360103 111.252788,5.83327802 111.017207,5.37576602 C110.781627,4.91825402 110.663837,4.40355302 110.663837,3.77447402 L110.663837,3.14539501 C110.663837,2.51631601 110.781627,1.94442601 111.017207,1.48691401 C111.252788,1.029402 111.547263,0.629079003 112.018423,0.400323002 C112.489584,0.171567001 112.960745,0 113.4908,0 C114.256436,0 114.845387,0.171567001 115.316547,0.571890002 C115.787708,0.972213004 116.023288,1.54410301 116.141078,2.23037101 L114.963177,2.23037101 C114.904282,1.77285901 114.786492,1.42972501 114.550911,1.20096901 C114.315331,0.972213004 113.961961,0.857835004 113.549695,0.857835004 C113.01964,0.857835004 112.607374,1.029402 112.371794,1.42972501 C112.136214,1.83004801 111.959528,2.34474901 111.959528,3.03101701 L111.959528,3.60290702 C111.959528,4.34636402 112.077319,4.86106502 112.371794,5.26138802 C112.607374,5.66171102 113.01964,5.83327802 113.549695,5.83327802 C114.020856,5.83327802 114.374226,5.71890002 114.609807,5.54733302 C114.845387,5.37576602 115.022072,5.03263202 115.080967,4.51793102 L116.082183,4.51793102 L116.082183,4.63230902 Z" id="Path"></path>
                                <polygon id="Path" points="122.325061 3.83166302 119.498097 3.83166302 119.498097 5.89046703 122.796221 5.89046703 122.796221 6.80549103 118.320196 6.80549103 118.320196 0.171567001 122.737326 0.171567001 122.737326 1.086591 119.498097 1.086591 119.498097 2.91663901 122.325061 2.91663901"></polygon>
                            </g>
                            <g id="Layer_28" transform="translate(517.000000, 0.000000)">
                                <path d="M31.8636211,24.2456507 C30.7507372,22.1270987 28.4078239,18.0665407 24.2491528,13.417496 C20.67621,9.35693801 15.2875094,4.41365 7.79018677,0 L1.34717516,0 C13.7060429,8.76845134 21.8476667,23.2452234 21.8476667,39.546304 C21.8476667,56.4947201 13.1203146,71.3834327 0,80.0341867 L0,82.3292848 C14.2917712,73.4431361 23.839143,57.6128447 23.839143,39.546304 C23.839143,24.3044994 17.0446944,10.6516087 6.38443878,1.412368 C20.9690742,9.94542468 27.9392413,21.008974 30.1064361,25.0106834 C24.2491528,28.1296627 25.596328,36.015384 26.4163476,39.4286067 C27.5878043,34.1910754 32.5664951,34.42647 32.8007864,29.9539714 C36.7251662,31.77828 41.7624298,28.423906 47.4439946,28.8358467 C43.9881975,24.6575914 37.5451859,22.3036447 31.8636211,24.2456507 Z" id="Path" fill="#F1F0F0" fill-rule="nonzero"></path>
                            </g>
                        </g>
                    </g>
                </g>
            </g>
        </g>
    </g>
</svg>