<?xml version="1.0" encoding="UTF-8"?>
<svg width="275px" height="152px" viewBox="0 0 275 152" version="1.1" xmlns="http://www.w3.org/2000/svg" xmlns:xlink="http://www.w3.org/1999/xlink">
    <title>42FBD0E6-8FB3-40FC-9219-08187D60CEA3</title>
    <defs>
        <rect id="path-1" x="0" y="0" width="257" height="134" rx="5"></rect>
        <filter x="-5.3%" y="-10.1%" width="110.5%" height="120.1%" filterUnits="objectBoundingBox" id="filter-3">
            <feOffset dx="0" dy="0" in="SourceAlpha" result="shadowOffsetOuter1"></feOffset>
            <feGaussianBlur stdDeviation="4.5" in="shadowOffsetOuter1" result="shadowBlurOuter1"></feGaussianBlur>
            <feComposite in="shadowBlurOuter1" in2="SourceAlpha" operator="out" result="shadowBlurOuter1"></feComposite>
            <feColorMatrix values="0 0 0 0 0   0 0 0 0 0   0 0 0 0 0  0 0 0 0.258877841 0" type="matrix" in="shadowBlurOuter1"></feColorMatrix>
        </filter>
        <linearGradient x1="0.260188575%" y1="49.9989504%" x2="100.260238%" y2="49.9989504%" id="linearGradient-4">
            <stop stop-color="#FD0000" offset="0%"></stop>
            <stop stop-color="#920000" offset="100%"></stop>
        </linearGradient>
        <linearGradient x1="0.312916443%" y1="50%" x2="100.527608%" y2="50%" id="linearGradient-5">
            <stop stop-color="#FD0000" offset="0%"></stop>
            <stop stop-color="#920000" offset="100%"></stop>
        </linearGradient>
        <linearGradient x1="100.001108%" y1="49.9998025%" x2="0.145995061%" y2="49.9998025%" id="linearGradient-6">
            <stop stop-color="#690000" offset="0%"></stop>
            <stop stop-color="#FD0000" offset="100%"></stop>
        </linearGradient>
        <linearGradient x1="99.7405716%" y1="50.0000678%" x2="-0.146527201%" y2="50.0000678%" id="linearGradient-7">
            <stop stop-color="#690000" offset="0%"></stop>
            <stop stop-color="#FD0000" offset="100%"></stop>
        </linearGradient>
        <linearGradient x1="-0.000130366719%" y1="50%" x2="99.9995221%" y2="50%" id="linearGradient-8">
            <stop stop-color="#690000" offset="0%"></stop>
            <stop stop-color="#FD0000" offset="100%"></stop>
        </linearGradient>
        <linearGradient x1="0.000124473939%" y1="50%" x2="100%" y2="50%" id="linearGradient-9">
            <stop stop-color="#690000" offset="0%"></stop>
            <stop stop-color="#FD0000" offset="100%"></stop>
        </linearGradient>
        <linearGradient x1="50.0002019%" y1="99.9999734%" x2="50.0002019%" y2="1.48431689e-05%" id="linearGradient-10">
            <stop stop-color="#FD0000" offset="0%"></stop>
            <stop stop-color="#920000" offset="100%"></stop>
        </linearGradient>
    </defs>
    <g id="design_v4" stroke="none" stroke-width="1" fill="none" fill-rule="evenodd">
        <g id="Fin_n_Min_site_v4" transform="translate(-995.000000, -2139.000000)">
            <g id="client-logo" transform="translate(180.000000, 2076.000000)">
                <g id="04-copy" transform="translate(824.000000, 72.000000)">
                    <mask id="mask-2" fill="white">
                        <use xlink:href="#path-1"></use>
                    </mask>
                    <g id="Rectangle-Copy-6">
                        <use fill="black" fill-opacity="1" filter="url(#filter-3)" xlink:href="#path-1"></use>
                        <rect stroke="#EEEEEE" stroke-width="1" stroke-linejoin="square" fill="#FFFFFF" fill-rule="evenodd" x="0.5" y="0.5" width="256" height="133" rx="5"></rect>
                    </g>
                    <g id="company-logos" mask="url(#mask-2)">
                        <g transform="translate(-517.000000, -214.000000)">
                            <g id="Layer_2_1_">
                                <rect id="Rectangle" fill="#1EA2FF" fill-rule="nonzero" x="0" y="0" width="1034" height="376.761134"></rect>
                            </g>
                            <g id="Layer_3" transform="translate(258.848853, 188.380567)">
                                <rect id="Rectangle" fill="#FFFFFF" fill-rule="nonzero" x="0" y="0" width="258.151147" height="188.380567"></rect>
                            </g>
                            <g id="Layer_8" transform="translate(517.000000, 0.000000)">
                                <rect id="Rectangle" fill="#EFF1FC" fill-rule="nonzero" x="258.5" y="188.380567" width="258.5" height="188.380567"></rect>
                                <rect id="Rectangle" fill="#000000" fill-rule="nonzero" x="0" y="188.380567" width="258.5" height="188.380567"></rect>
                            </g>
                            <g id="Layer_13" transform="translate(602.817814, 120.005398)">
                                <g id="XMLID_151_" transform="translate(16.931632, 213.747795)" fill="url(#linearGradient-4)" fill-rule="nonzero">
                                    <path d="M8.31846697,1.67984096 C8.37730418,1.79752882 7.90660656,2.09174848 7.08288572,2.26828028 C6.25916489,2.44481208 5.14125804,2.50365601 3.84683958,2.26828028 C2.61125833,2.03290455 1.55218869,1.50330916 0.904979459,1.0325577 C0.257770231,0.561806247 -0.0952529835,0.149898721 0.0224214215,0.0322108569 C0.198933029,-0.203164872 1.7875375,0.91486984 4.08218839,1.32677737 C6.37683929,1.85637276 8.25962977,1.44446523 8.31846697,1.67984096 Z" id="XMLID_153_"></path>
                                </g>
                                <g id="XMLID_147_" transform="translate(0.000000, 212.883028)" fill="url(#linearGradient-5)" fill-rule="nonzero">
                                    <path d="M0.00893912457,2.42692032 C-0.10873528,2.19154459 0.950334365,1.4854174 2.30359002,0.838134147 C3.71568288,0.190850892 4.89242693,-0.162212701 5.01010134,0.0731630278 C5.12777574,0.308538757 4.0687061,1.01466594 2.71545044,1.6619492 C1.36219478,2.30923245 0.12661353,2.66229604 0.00893912457,2.42692032 Z" id="XMLID_148_"></path>
                                </g>
                                <g id="XMLID_143_" transform="translate(16.326874, 202.776190)" fill="#FFFFFF" fill-rule="nonzero">
                                    <path d="M0.803690581,5.06057817 C0.686016176,4.94289031 1.03903939,4.58982671 1.39206261,3.88369953 C1.56857421,3.53063593 1.68624862,3.11872841 1.74508582,2.58913302 C1.74508582,2.47144515 1.80392302,2.35375729 1.80392302,2.23606942 C1.80392302,2.11838156 1.80392302,2.17722549 1.80392302,2.17722549 L1.80392302,2.17722549 L1.80392302,2.17722549 L1.80392302,2.17722549 C1.80392302,2.17722549 1.80392302,2.17722549 1.74508582,2.23606942 C1.56857421,2.47144515 1.45089981,2.70682088 1.2743882,2.94219661 C1.03903939,3.41294807 0.803690581,3.88369953 0.686016176,4.29560705 C0.391830163,5.1194221 0.332992961,5.64901749 0.215318556,5.64901749 C0.0976441508,5.64901749 -0.0788674567,5.06057817 0.0388069483,4.17791919 C0.0976441508,3.70716773 0.215318556,3.17757234 0.509504568,2.58913302 C0.627178973,2.29491336 0.803690581,2.00069369 0.980202188,1.70647403 C1.2743882,1.23572258 1.68624862,0.764971119 2.09810904,0.353063593 C2.21578344,0.235375729 2.33345785,0.117687864 2.45113225,0 C2.56880666,0.588439322 2.68648106,1.05919078 2.68648106,1.58878617 C2.68648106,1.70647403 2.68648106,1.88300583 2.68648106,2.00069369 C2.68648106,2.11838156 2.68648106,2.29491336 2.68648106,2.35375729 C2.68648106,2.53028908 2.62764386,2.64797695 2.62764386,2.82450875 C2.50996945,3.41294807 2.21578344,3.88369953 1.98043463,4.23676312 C1.39206261,4.94289031 0.862527783,5.17826603 0.803690581,5.06057817 Z" id="XMLID_144_"></path>
                                </g>
                                <g id="XMLID_138_" transform="translate(25.661959, 186.406172)" fill="#FFFFFF" fill-rule="nonzero">
                                    <path d="M2.64767411,7.48458421 C2.4711625,7.24920849 4.7069762,5.36620266 8.47255716,2.54169391 C8.94325478,2.18863032 9.5316268,1.77672279 10.3553476,1.54134706 C10.7672081,1.4236592 11.2379057,1.4236592 11.5909289,1.48250313 C12.0027893,1.54134706 12.2969753,1.60019099 12.5911613,1.60019099 C12.8853473,1.60019099 13.0030218,1.60019099 13.2972078,1.48250313 C13.5325566,1.36481527 13.7679054,1.2471274 14.0620914,1.01175167 C14.3562774,0.835219876 14.6504634,0.599844147 15.0623238,0.364468418 C15.4741843,0.129092689 16.0037191,-0.0474391075 16.5920911,0.0114048247 C17.1804631,0.0114048247 17.709998,0.305624486 18.0630212,0.482156282 C18.4160444,0.658688079 18.7102304,0.835219876 19.1220908,0.95290774 C19.8281372,1.2471274 20.5930209,1.48250313 21.3579045,1.65903493 C21.7697649,1.71787886 22.1227881,1.83556672 22.5346486,1.83556672 C22.7111602,1.83556672 22.946509,1.89441066 23.1230206,1.89441066 C23.2995322,1.89441066 23.4760438,1.89441066 23.829067,1.95325459 C23.8879042,1.95325459 24.0055786,1.95325459 24.123253,2.01209852 C24.2409274,2.01209852 24.3586018,2.07094245 24.417439,2.07094245 C24.5939506,2.12978638 24.8292995,2.24747425 24.9469739,2.36516211 C25.2411599,2.65938177 25.5353459,3.01244537 25.5353459,3.42435289 C25.5353459,3.65972862 25.5353459,3.83626042 25.5353459,4.07163615 C25.4765087,4.24816794 25.4176715,4.5423876 25.2999971,4.66007547 C25.1823227,4.95429513 25.0058111,5.18967086 24.7704623,5.42504659 C24.6527878,5.54273445 24.5939506,5.66042232 24.4762762,5.71926625 C24.3586018,5.83695411 24.2409274,5.89579805 24.1820902,5.95464198 L23.6525554,6.3665495 C23.2995322,6.66076916 22.946509,6.95498882 22.5934858,7.19036455 C21.8874393,7.71995994 21.1225557,8.1907114 20.3576721,8.66146286 C18.886742,9.54412184 17.3569747,10.309093 15.8860447,10.8975323 C12.9441845,12.0744109 10.1199988,12.7805381 7.70767353,13.0747578 C5.29534822,13.3689774 3.35372054,13.3689774 2.05930209,13.2512896 C0.70604643,13.1336017 0,12.9570699 0,12.839382 C0,12.7216942 0.764883632,12.6040063 2.05930209,12.4863185 C3.35372054,12.3686306 5.23651102,12.1920988 7.47232472,11.7213473 C9.70813841,11.2505959 12.3558125,10.4856248 15.1799982,9.24990218 C16.5332539,8.60261893 17.9453468,7.89649174 19.3574396,7.01383276 C20.0634861,6.5430813 20.7695325,6.13117377 21.4167417,5.60157838 C21.7697649,5.36620266 22.1227881,5.07198299 22.4169742,4.83660727 L22.946509,4.42469974 C23.0641834,4.36585581 23.1230206,4.30701188 23.1818578,4.24816794 C23.240695,4.18932401 23.2995322,4.13048008 23.3583694,4.07163615 C23.4760438,3.95394828 23.534881,3.83626042 23.5937182,3.71857255 C23.5937182,3.65972862 23.5937182,3.71857255 23.5937182,3.71857255 L23.5937182,3.71857255 L23.5937182,3.71857255 L23.5937182,3.71857255 L23.5937182,3.71857255 C23.5937182,3.71857255 23.5937182,3.71857255 23.534881,3.71857255 L22.8876718,3.65972862 C22.652323,3.65972862 22.4169742,3.60088469 22.1816253,3.60088469 C21.7109277,3.54204076 21.2990673,3.48319682 20.8283697,3.36550896 C19.9458116,3.18897716 19.1220908,2.8947575 18.29837,2.54169391 C17.8865096,2.36516211 17.4746491,2.18863032 17.1804631,1.95325459 C16.8274399,1.77672279 16.5920911,1.65903493 16.4155795,1.65903493 C16.2390679,1.65903493 16.0037191,1.65903493 15.7683703,1.83556672 C15.4741843,1.95325459 15.1799982,2.18863032 14.8858122,2.36516211 C14.532789,2.54169391 14.1797658,2.77706964 13.7679054,2.95360143 C13.356045,3.13013323 12.7676729,3.18897716 12.3558125,3.13013323 C11.9439521,3.0712893 11.5909289,3.01244537 11.3555801,2.95360143 C11.0613941,2.8947575 10.8848825,2.8947575 10.6495337,2.95360143 C10.178836,3.01244537 9.70813841,3.30666503 9.23744079,3.60088469 C5.29534822,6.19001771 2.82418572,7.66111601 2.64767411,7.48458421 Z" id="XMLID_140_"></path>
                                </g>
                                <g id="XMLID_120_" transform="translate(0.710850, 177.473300)" fill="url(#linearGradient-6)" fill-rule="nonzero">
                                    <path d="M0.533670771,0 C0.533670771,0 1.00436839,1.05919078 1.35739161,2.70682088 C1.53390321,3.53063593 1.76925202,4.47213885 2.12227524,5.53132963 C2.47529845,6.59052041 2.88715887,7.70855512 3.35785649,8.82658983 C3.88739131,9.94462454 4.47576334,11.0038153 5.00529816,11.9453182 C5.59367019,12.8868212 6.12320501,13.6517923 6.65273983,14.3579195 C7.65297227,15.7113299 8.3001815,16.5351449 8.12366989,16.7116767 C7.94715829,16.8882085 6.94692584,16.4174571 5.65250739,15.2405784 C5.00529816,14.6521391 4.29925173,13.887168 3.5932053,12.9456651 C2.88715887,12.0041622 2.23994964,10.8861275 1.65157762,9.65040488 C1.06320559,8.41468231 0.710182378,7.17895973 0.415996366,6.00208108 C0.180647556,4.82520244 0.062973151,3.82485559 0.00413594847,2.88335268 C-0.054701254,1.05919078 0.533670771,0 0.533670771,0 Z" id="XMLID_123_"></path>
                                </g>
                                <g id="XMLID_117_" transform="translate(2.774288, 177.343924)" fill="url(#linearGradient-7)" fill-rule="nonzero">
                                    <path d="M10.4141848,9.89746877 C10.1199988,9.9563127 9.82581282,9.01480979 9.29627799,7.72024328 C8.76674317,6.36683284 7.88418513,4.60151487 6.58976668,2.83619691 C6.41325507,2.60082118 6.17790626,2.30660152 6.00139465,2.07122579 C5.94255745,1.95353792 5.82488305,1.89469399 5.82488305,1.83585006 L5.82488305,1.83585006 C5.82488305,1.83585006 5.88372025,1.77700613 5.70720864,1.89469399 C5.58953424,1.95353792 5.29534822,2.07122579 5.05999941,2.13006972 C4.58930179,2.30660152 4.11860417,2.36544545 3.64790655,2.36544545 C2.76534852,2.36544545 2.00046488,2.18891365 1.41209286,1.89469399 C0.823720835,1.60047433 0.47069762,1.30625467 0.23534881,1.01203501 C0,0.717815346 -0.0588372025,0.541283549 0.0588372025,0.482439617 C0.23534881,0.30590782 0.823720835,0.658971414 1.76511607,0.776659278 C2.23581369,0.83550321 2.82418572,0.894347142 3.47139495,0.776659278 C3.76558096,0.717815346 4.11860417,0.658971414 4.41279019,0.482439617 C4.58930179,0.423595685 4.7069762,0.364751753 4.94232501,0.247063888 C5.11883662,0.129376024 5.64837144,-0.0471557728 6.06023186,0.0116881594 C6.35441787,0.0705320916 6.64860388,0.188219956 6.94278989,0.364751753 C7.1781387,0.541283549 7.29581311,0.717815346 7.47232472,0.83550321 C7.70767353,1.12972287 7.94302234,1.3650986 8.17837115,1.65931826 C9.64930121,3.60116802 10.3553476,5.71954958 10.6495337,7.30833575 C10.8260453,8.89712192 10.6495337,9.89746877 10.4141848,9.89746877 Z" id="XMLID_119_"></path>
                                </g>
                                <g id="XMLID_110_" transform="translate(45.812828, 150.376338)" fill="#FFFFFF" fill-rule="nonzero">
                                    <path d="M0.0302915786,15.3870193 C-0.0873828263,15.2693314 0.147965984,14.9162679 0.559826401,14.2101407 C0.736338009,13.8570771 0.971686819,13.4451695 1.14819843,12.9744181 C1.32471003,12.5036666 1.38354724,11.9740712 1.20703563,11.4444759 C1.20703563,11.3856319 1.14819843,11.2679441 1.14819843,11.1502562 C1.08936122,10.9737244 1.08936122,10.8560365 1.08936122,10.6795047 C1.08936122,10.3264411 1.20703563,10.0322215 1.44238444,9.73800182 C1.56005884,9.62031396 1.67773325,9.50262609 1.79540765,9.38493823 C1.91308206,9.32609429 2.03075646,9.20840643 2.08959367,9.1495625 C2.26610527,9.03187463 2.44261688,8.91418677 2.67796569,8.79649891 C3.44284932,8.32574745 4.32540736,7.97268385 5.2079654,7.61962026 C6.97308147,6.91349307 8.97354636,6.32505375 10.4444764,5.03048724 C11.1505229,4.44204792 11.6800577,3.6770768 11.6800577,3.02979355 C11.6800577,2.67672996 11.6212205,2.38251029 11.4447089,2.2059785 C11.2681973,2.0294467 11.0328484,1.8529149 10.7386624,1.79407097 C10.0914532,1.61753918 9.20889517,1.73522704 8.38517433,1.8529149 C7.5614535,1.97060277 6.85540707,2.14713457 6.14936064,2.32366636 C3.44284932,3.02979355 1.85424486,3.8536086 1.73657045,3.61823287 C1.67773325,3.50054501 1.97191926,3.14748141 2.67796569,2.67672996 C3.32517492,2.2059785 4.38424456,1.55869524 5.79633742,1.02909985 C6.50238385,0.734880193 7.26726749,0.499504464 8.14982552,0.322972668 C8.97354636,0.146440871 9.9737788,-0.14777879 11.1505229,0.0875969387 C11.7388949,0.205284803 12.4449413,0.499504464 12.9156389,1.08794379 C13.3863365,1.67638311 13.6216854,2.38251029 13.6216854,3.08863748 C13.6216854,3.44170107 13.5628482,3.79476467 13.4451737,4.14782826 C13.3274993,4.50089185 13.2098249,4.79511152 13.0333133,5.08933118 C12.6802901,5.6777705 12.2684297,6.14852196 11.7388949,6.56042948 C10.7974996,7.3254006 9.73842999,7.91383992 8.73819755,8.32574745 C7.73796511,8.73765497 6.73773266,9.03187463 5.85517463,9.32609429 C4.97261659,9.62031396 4.14889575,9.91453362 3.44284932,10.2675972 C3.26633772,10.3264411 3.08982611,10.444129 2.9133145,10.5029729 C2.7956401,10.5618169 2.73680289,10.5618169 2.67796569,10.6206608 C2.61912849,10.6206608 2.61912849,10.6206608 2.61912849,10.6795047 C2.56029129,10.6795047 2.56029129,10.7383487 2.56029129,10.7971926 L2.56029129,10.8560365 C2.56029129,10.9148805 2.56029129,11.0325683 2.61912849,11.0914123 C2.7956401,12.0329152 2.50145408,12.7978863 2.20726807,13.3863256 C1.91308206,13.9747649 1.50122164,14.3278285 1.20703563,14.6220482 C0.559826401,15.2693314 0.147965984,15.4458632 0.0302915786,15.3870193 Z" id="XMLID_111_"></path>
                                </g>
                                <path d="M24.4852154,108.567055 C23.4261457,118.923587 32.1928889,118.335148 34.840563,126.043703 C32.7224237,119.158963 17.1305651,119.217807 24.4852154,108.567055 Z" id="XMLID_72_" fill="url(#linearGradient-8)" fill-rule="nonzero"></path>
                                <path d="M38.4884696,140.81353 C35.0759118,131.398501 18.3661463,124.572604 20.60196,116.56983 C21.0726576,125.39642 36.2526559,124.337229 38.4884696,140.81353 Z" id="XMLID_74_" fill="url(#linearGradient-9)" fill-rule="nonzero"></path>
                                <path d="M40.1359112,134.576073 C39.8417252,131.69272 39.1356788,129.044743 38.1942835,126.808674 C38.0766091,126.514454 37.9589347,126.220235 37.8412603,125.984859 C37.7235859,125.690639 37.5470743,125.455263 37.4293999,125.219888 C37.1352139,124.690292 36.8998651,124.219541 36.6056791,123.748789 C36.0173071,122.807287 35.428935,121.983471 34.840563,121.159656 C33.663819,119.629714 32.6635865,118.335148 31.8398657,117.217113 C31.0161448,116.157922 30.4277728,115.275263 30.0747496,114.686824 C29.6628892,114.098385 29.4863776,113.745321 29.4863776,113.804165 C29.4863776,113.804165 29.604052,114.157228 29.9570752,114.804512 C30.3100984,115.451795 30.8396332,116.334454 31.6045169,117.452489 C32.3694005,118.570523 33.3696329,119.923934 34.4875398,121.453876 C35.0170746,122.218847 35.6054466,123.101506 36.1349815,124.043009 C36.4291675,124.513761 36.6645163,124.984512 36.8998651,125.514107 C37.0175395,125.749483 37.1352139,126.043703 37.3117255,126.279079 C37.4293999,126.573298 37.5470743,126.808674 37.6647487,127.102894 C38.5473068,129.338963 39.194516,131.869252 39.488702,134.693761 C39.7240508,137.51827 39.6063764,140.51931 39.0768416,143.638039 C38.4884696,146.756767 37.6059115,149.993183 36.2526559,153.170756 C34.8994002,156.348328 33.2519585,159.5259 31.3103309,162.703473 C29.4863776,165.704513 27.6035871,168.529022 25.7207966,171.294687 C22.4259133,174.648791 17.6012627,178.120583 14.6005653,182.357346 C13.0707981,184.475727 11.5410308,186.829485 10.1877752,189.418618 C9.83475194,186.947173 9.59940313,182.945785 9.59940313,182.945785 C9.59940313,182.945785 8.24614747,187.712144 10.0112635,189.712837 C9.83475194,190.124745 9.65824033,190.477809 9.42289152,190.889716 C6.89289182,188.065207 5.18661294,183.710756 5.18661294,183.710756 C5.18661294,183.710756 5.77498497,189.889369 9.30521712,191.183936 C9.12870551,191.478155 9.01103111,191.831219 8.8345195,192.125439 C7.18707783,195.832606 6.12800818,199.598618 5.71614777,203.07041 C5.48079896,204.835728 5.36312455,206.483358 5.42196175,208.072144 C5.42196175,209.66093 5.59847336,211.132029 6.01033378,212.485439 C6.4221942,213.780006 7.01056622,214.956884 7.77544985,215.780699 C8.54033349,216.604514 9.36405432,217.13411 10.0701008,217.369486 C10.7761472,217.663705 11.4233564,217.722549 11.8352168,217.663705 C12.2470772,217.663705 12.4235889,217.546017 12.4235889,217.487173 C12.4235889,217.310642 11.599868,217.369486 10.423124,216.663358 C9.83475194,216.310295 9.18754271,215.780699 8.59917069,215.015728 C8.01079866,214.250757 7.54010104,213.25041 7.30475223,212.073532 C7.01056622,210.896653 6.95172902,209.543243 7.01056622,208.0133 C7.01056622,206.542202 7.18707783,204.953416 7.42242664,203.305786 C7.95196146,200.010526 9.01103111,196.421046 10.5407984,192.89041 C12.1294028,189.30093 14.0121933,186.123358 15.953821,183.298849 C17.5424255,181.121623 20.2489368,178.414802 22.7200993,175.53145 C21.7198668,177.061392 20.7196344,178.591334 19.8370764,180.062433 C16.4245186,185.534918 13.9533561,190.830872 12.6001005,195.538387 C11.894054,197.892144 11.4821936,200.069369 11.2468448,201.952375 C11.1880076,202.423127 11.1291704,202.893878 11.0703332,203.36463 C11.0703332,203.835381 11.011496,204.247289 11.011496,204.659196 C11.011496,204.894572 11.011496,205.071104 10.9526588,205.247636 C10.9526588,205.424167 10.9526588,205.659543 10.9526588,205.836075 C10.9526588,206.189138 10.9526588,206.601046 10.9526588,206.895266 C11.011496,208.248676 11.1291704,209.307867 11.2468448,210.013994 C11.3645192,210.720121 11.4233564,211.073185 11.4821936,211.073185 C11.5410308,211.073185 11.4821936,210.720121 11.4233564,209.95515 C11.3645192,209.249023 11.305682,208.189832 11.305682,206.836422 C11.305682,206.483358 11.305682,206.130295 11.3645192,205.777231 C11.3645192,205.600699 11.3645192,205.424167 11.3645192,205.188792 C11.3645192,205.01226 11.4233564,204.776884 11.4233564,204.600352 C11.4821936,204.188445 11.4821936,203.776537 11.5410308,203.305786 C11.599868,202.893878 11.6587052,202.423127 11.7175424,201.952375 C12.0117284,200.069369 12.4824261,197.950988 13.1884725,195.656075 C14.6005653,191.066248 17.1305651,185.829138 20.5431228,180.415496 C23.8968433,175.001854 28.1331219,169.293993 32.0163773,162.997692 C33.958005,159.82012 35.6642838,156.583704 37.0175395,153.347287 C38.3707952,150.110871 39.3121904,146.815611 39.8417252,143.579195 C40.37126,140.578154 40.4300972,137.459426 40.1359112,134.576073 Z" id="XMLID_75_" fill="url(#linearGradient-10)" fill-rule="nonzero"></path>
                                <path d="M46.3138175,149.169368 C46.2549803,148.580929 46.2549803,148.051333 46.1961431,147.521738 C46.1373059,146.992143 46.0784687,146.462547 46.0196315,145.932952 C45.5489339,141.755033 44.7840502,138.459772 44.0780038,136.282547 C43.9014922,135.694108 43.7249806,135.223356 43.6073062,134.811449 C43.4307946,134.399541 43.3131202,134.046478 43.1954458,133.752258 C42.9600969,133.163819 42.7835853,132.869599 42.7247481,132.928443 C42.6659109,132.928443 42.6659109,133.281506 42.7835853,133.869946 C42.8424225,134.164165 42.9012597,134.517229 43.0189342,134.98798 C43.1366086,135.399888 43.254283,135.929483 43.3131202,136.459079 C43.7838178,138.695148 44.3721898,141.990408 44.6075386,146.05064 C44.6663758,146.580235 44.6663758,147.109831 44.725213,147.639426 C44.725213,148.169021 44.725213,148.698617 44.725213,149.287056 C44.725213,149.816651 44.7840502,150.405091 44.725213,150.99353 C44.725213,151.581969 44.6663758,152.170409 44.6663758,152.758848 C44.6663758,153.053068 44.6663758,153.347287 44.6663758,153.641507 C44.6663758,153.935727 44.6075386,154.229946 44.6075386,154.58301 C44.5487014,155.171449 44.4898642,155.818732 44.4898642,156.466016 C44.431027,157.113299 44.3133526,157.760582 44.2545154,158.407865 C44.1956782,159.055149 44.0780038,159.702432 43.9603294,160.408559 C43.842655,161.055842 43.7249806,161.76197 43.6073062,162.409253 C43.4307946,163.056536 43.3131202,163.762663 43.1366086,164.468791 C43.0777714,164.821854 42.9600969,165.174918 42.9012597,165.527981 C42.7835853,165.881045 42.7247481,166.234108 42.6070737,166.587172 C42.4305621,167.293299 42.2540505,167.999426 42.0187017,168.705554 C41.1949809,171.530062 40.077074,174.354571 38.7238184,177.120236 C37.4293999,179.944745 35.8407954,182.533878 34.252191,185.005323 C32.6635865,187.476768 30.9573076,189.771681 29.3687032,191.948907 C26.132657,196.303358 23.1319597,200.245901 20.7784716,203.658849 C18.4838207,207.130641 16.7775418,210.072838 15.8361466,212.132376 C15.3066118,213.191566 15.0124258,214.015381 14.777077,214.603821 C14.5417281,215.19226 14.4828909,215.48648 14.5417281,215.545324 C14.8359142,215.663012 16.9540534,211.014341 21.8963785,204.42382 C23.7791689,201.893531 26.0149826,199.010179 28.4861451,195.89145 C33.7814934,198.657115 40.7831205,194.891103 40.7831205,194.891103 C40.7831205,194.891103 33.6049818,196.774109 28.6038195,195.773762 C28.9568428,195.303011 29.309866,194.891103 29.6628892,194.420352 C34.6640514,194.479196 38.0766091,191.595843 38.0766091,191.595843 C38.0766091,191.595843 33.958005,192.713878 30.0747496,193.890757 C30.3100984,193.596537 30.5454472,193.302317 30.780796,193.008098 C32.4282377,190.830872 34.1933538,188.535959 35.8407954,186.00567 C37.4882371,183.534225 39.1356788,180.827404 40.4889344,177.944051 C41.8421901,175.060698 43.0189342,172.118502 43.842655,169.235149 C44.0780038,168.529022 44.2545154,167.764051 44.431027,167.057924 C44.5487014,166.70486 44.6075386,166.351796 44.725213,165.998733 C44.7840502,165.645669 44.9017246,165.292606 44.9605618,164.939542 C45.0782362,164.233415 45.2547478,163.527288 45.3724223,162.82116 C45.4900967,162.115033 45.6077711,161.408906 45.6666083,160.761623 C45.7842827,160.055496 45.8431199,159.408212 45.9019571,158.702085 C45.9607943,158.054802 46.0196315,157.348675 46.0784687,156.701391 C46.1373059,156.054108 46.1373059,155.406825 46.1961431,154.759542 C46.1961431,154.465322 46.2549803,154.112258 46.2549803,153.818039 C46.2549803,153.523819 46.2549803,153.170756 46.2549803,152.876536 C46.2549803,152.288097 46.2549803,151.640813 46.2549803,151.052374 C46.3726547,150.346247 46.3138175,149.757807 46.3138175,149.169368 Z" id="XMLID_39_" fill="#FFFFFF" fill-rule="nonzero"></path>
                            </g>
                            <g id="Layer_14" transform="translate(568.630229, 251.174089)">
                                <g id="Group" fill="#FF0606" fill-rule="nonzero">
                                    <path d="M15.2604975,23.1781446 C12.9625847,24.93851 10.6057512,25.8186927 8.24891757,25.8186927 C5.7742423,25.8186927 3.94769626,24.8798311 2.82820031,23.0607869 C2.00330855,21.7111734 1.59086267,20.2442022 1.59086267,18.6011945 C1.59086267,16.9581868 1.88546687,15.3151791 2.47467527,13.6721714 C1.00165428,12.674631 0.235683359,11.3836963 0.0589208398,9.79936745 C0,9.50597322 0,9.15390013 0,8.8605059 C0,6.39599433 1.06057512,4.28355583 3.18172535,2.64054812 C5.4796381,0.880182705 8.13107589,0 11.2538804,0 C14.3766849,0 16.910281,0.880182705 18.9725104,2.58186927 C21.0347398,4.28355583 22.0363941,6.74806741 22.0363941,9.97540399 C22.0363941,10.2101194 22.0363941,10.3861559 22.0363941,10.6208713 C24.0986235,9.27125783 25.4538028,7.98032319 26.101932,6.74806741 C26.2197737,6.51335202 26.3376154,6.39599433 26.5143779,6.45467317 C26.6911404,6.51335202 26.7500613,6.57203087 26.7500613,6.63070971 C26.7500613,6.68938856 26.6911404,6.8654251 26.5732987,7.04146164 C25.3359611,8.97786359 23.8040193,10.5035136 21.9185524,11.6770906 C21.8596316,12.674631 21.5650274,13.789529 21.1525815,15.1978214 C20.6812148,16.5474349 19.9741647,17.9557272 18.9135896,19.4226984 C17.9119353,20.8309907 16.6745977,22.0632465 15.2604975,23.1781446 Z M20.2687689,9.91672515 C20.2687689,6.45467317 19.1492729,3.8728039 16.910281,2.17111734 C15.43726,1.05621925 13.6696348,0.528109623 11.6663263,0.528109623 C11.0771179,0.528109623 10.4879095,0.58678847 9.89870108,0.704146164 C7.36510497,1.05621925 5.30287558,2.11243849 3.7120129,3.81412506 C2.35683359,5.28109623 1.70870435,6.9827828 1.70870435,8.8605059 C1.70870435,10.5035136 2.18007107,11.6770906 3.06388367,12.4399156 C3.88877542,10.738229 5.06719222,8.97786359 6.65805489,7.21749818 C8.36675925,5.28109623 10.1933053,4.10751929 12.0787722,3.69676736 C12.3733763,3.63808852 12.7858222,3.57940967 13.2571889,3.57940967 C13.7285557,3.57940967 14.3177641,3.75544621 14.9658933,4.16619814 C15.083735,4.22487699 15.2015767,4.34223468 15.2015767,4.40091353 C15.2015767,4.45959237 15.1426558,4.51827122 15.083735,4.57695007 C14.9658933,4.63562891 14.8480516,4.57695007 14.6123683,4.51827122 C14.3766849,4.45959237 14.0820807,4.40091353 13.5517931,4.40091353 C13.0215056,4.40091353 12.3733763,4.63562891 11.4306429,5.16373854 C10.5468303,5.63316931 9.60409688,6.45467317 8.66136344,7.51089242 C6.83481741,9.62333091 5.4796381,11.5597329 4.5958255,13.437456 C5.89208398,14.0242444 7.48294665,14.3176387 9.30949268,14.3176387 C10.1343844,14.3176387 10.9592762,14.2589598 11.9020096,14.1416021 C14.8480516,13.7308502 17.6173311,12.8506675 20.209848,11.501054 C20.2687689,10.9729444 20.2687689,10.4448348 20.2687689,9.91672515 Z M20.0330855,12.6159521 C16.556756,14.4349964 12.9036639,15.3738579 9.07380932,15.3738579 C7.18834245,15.3738579 5.59747978,15.0804637 4.18337962,14.5523541 C3.53525039,16.1953618 3.24064619,17.662333 3.24064619,18.8945887 C3.24064619,21.7698522 4.12445878,23.5888965 5.83316314,24.4104004 C6.77589657,24.8211523 7.71863001,25.0558677 8.6024426,25.0558677 C9.54517604,25.0558677 10.4289886,24.8798311 11.3128012,24.4690792 C13.1393473,23.6475753 14.7891308,22.3566407 16.2032309,20.5962753 C17.6762519,18.8359099 18.736827,16.8995079 19.502798,14.7870694 C19.7384813,14.0242444 19.9741647,13.2614194 20.0330855,12.6159521 Z" id="Shape"></path>
                                    <path d="M24.0986235,23.2368234 C24.5110693,23.2368234 24.9235152,23.0607869 25.3359611,22.6500349 C26.101932,21.8872099 27.1035863,20.3028811 28.2820031,17.9557272 C28.3998448,17.662333 28.5766073,17.5449753 28.694449,17.662333 C28.7533698,17.7210118 28.7533698,17.7796906 28.7533698,17.8383695 C28.7533698,17.8970483 28.694449,18.1317637 28.5176864,18.5425157 C28.3409239,18.8945887 28.2230822,19.2466618 28.0463197,19.5400561 C27.928478,19.8334503 27.6338738,20.3028811 27.2803488,20.9483484 C26.8679029,21.5938157 26.5732987,22.1219253 26.2197737,22.4739984 C25.3948819,23.4715388 24.5699902,23.9409696 23.8040193,23.9409696 C23.0380483,23.9409696 22.5077608,23.7062542 22.1542357,23.2368234 C21.8007107,22.7673926 21.682869,22.2979619 21.682869,21.7111734 C21.682869,21.1243849 21.8007107,20.5375965 22.0953149,19.8921291 L24.0986235,14.8457483 C24.1575443,14.7283906 24.1575443,14.5523541 24.1575443,14.3763175 C24.1575443,14.1416021 24.0397026,13.9068867 23.8040193,13.5548137 L25.5127236,13.4961348 C25.9840903,13.4961348 26.2786945,13.5548137 26.3376154,13.7308502 C26.3965362,13.9068867 26.3376154,14.200281 26.1608529,14.5523541 L23.6861776,20.3615599 C23.3326525,21.1243849 23.15589,21.7698522 23.15589,22.2979619 C23.0969692,22.9434292 23.4504942,23.2368234 24.0986235,23.2368234 Z M27.1035863,11.9118059 C26.8089821,12.1465213 26.5143779,12.263879 26.1608529,12.263879 C25.8073278,12.263879 25.5127236,12.1465213 25.3359611,11.9118059 C25.1002777,11.6770906 25.0413569,11.3836963 25.1002777,11.0316232 C25.1591986,10.6795502 25.3359611,10.3861559 25.6305653,10.1514405 C25.9251695,9.91672515 26.2197737,9.79936745 26.5732987,9.79936745 C26.9268238,9.79936745 27.221428,9.91672515 27.4571113,10.1514405 C27.6927947,10.3861559 27.7517155,10.6795502 27.6927947,11.0316232 C27.574953,11.3250175 27.3981905,11.6184117 27.1035863,11.9118059 Z" id="Shape"></path>
                                    <path d="M30.9334409,23.3541811 C31.2280451,23.41286 31.4048076,23.41286 31.4637284,23.41286 C32.2886202,23.41286 33.1135119,22.9434292 33.9384037,21.9458888 C34.3508496,21.4177792 35.1757413,20.0681657 36.2952373,17.8970483 C36.3541581,17.7796906 36.413079,17.7210118 36.5309207,17.7210118 C36.7076832,17.7210118 36.8255248,17.7796906 36.8255248,17.9557272 C36.8255248,18.014406 36.766604,18.1317637 36.7076832,18.3078003 C36.5898415,18.4838368 36.5309207,18.7185522 36.4719998,18.8945887 C36.413079,19.0706253 36.2363165,19.3640195 36.0595539,19.7747714 C35.8827914,20.1855234 35.7060289,20.4202388 35.5881872,20.6549542 C35.4703455,20.8896695 35.293583,21.1830638 35.0578997,21.476458 C34.8222163,21.8285311 34.6454538,22.0632465 34.4097704,22.239283 L33.7616412,22.9434292 C33.4081161,23.2955023 32.9956703,23.5302177 32.5243035,23.7062542 C31.7583326,23.9409696 30.9923617,23.9996484 30.2853116,23.764933 C29.8139449,23.9996484 29.401499,24.0583273 28.9890532,24.0583273 C27.5160322,24.0583273 26.6322196,23.4715388 26.3376154,22.2979619 C26.2786945,22.0045676 26.2197737,21.7111734 26.2197737,21.3004215 C26.2197737,20.8896695 26.3376154,20.5375965 26.6322196,20.1855234 C26.8679029,19.8334503 27.1625071,19.6574138 27.4571113,19.6574138 C28.5176864,17.662333 29.401499,15.8432887 30.16747,14.2589598 C30.9923617,12.4985944 31.9350951,11.6184117 33.0545911,11.6184117 C33.3491953,11.6184117 33.6437995,11.6770906 33.9384037,11.7944483 C34.2330079,11.9118059 34.3508496,12.0878425 34.2330079,12.263879 C34.1740871,12.4399156 33.9973245,12.4399156 33.7616412,12.3812367 C33.5259578,12.263879 33.3491953,12.2052002 33.1724328,12.2052002 C32.9956703,12.2052002 32.8778286,12.263879 32.7599869,12.3225579 C32.0529368,12.674631 31.6994118,13.3787771 31.6994118,14.4349964 C31.6994118,15.0217848 31.7583326,15.4912156 31.9350951,15.8432887 C32.1118577,16.1953618 32.2886202,16.6061137 32.5243035,17.0755445 C32.9956703,18.1317637 33.2313536,19.0119464 33.2313536,19.7160926 C33.2313536,20.4202388 32.9956703,21.0657061 32.5832244,21.7111734 C32.0529368,22.4153196 31.5226493,22.9434292 30.9334409,23.3541811 Z M27.574953,22.2979619 C27.574953,22.4153196 27.574953,22.5326773 27.6338738,22.7087138 C27.8106364,23.2368234 28.1641614,23.5302177 28.8122906,23.5302177 C29.047974,23.5302177 29.2836574,23.4715388 29.4604199,23.41286 C28.694449,22.9434292 28.2820031,22.1806042 28.2230822,21.0657061 C27.7517155,21.476458 27.574953,21.8285311 27.574953,22.2979619 Z M29.8728658,23.1194657 C30.7566784,22.4153196 31.2280451,21.3004215 31.2280451,19.7160926 C31.2280451,19.0706253 31.1691242,18.1904426 30.9923617,17.0755445 C30.8155992,15.9606464 30.7566784,15.1978214 30.7566784,14.7870694 C30.7566784,14.3763175 30.7566784,14.1416021 30.8155992,13.9655656 C29.2247365,17.0755445 28.2820031,19.0119464 27.8695572,19.7160926 C28.2820031,19.7160926 28.5176864,20.0094868 28.5176864,20.6549542 C28.5766073,21.8872099 28.9890532,22.7087138 29.8728658,23.1194657 Z" id="Shape"></path>
                                    <path d="M41.7748754,22.5326773 C41.7748754,23.1194657 42.0105587,23.41286 42.4230046,23.41286 C43.4246589,23.41286 44.7798382,21.5938157 46.5474634,17.9557272 C46.6653051,17.662333 46.8420676,17.5449753 46.9599093,17.6036541 C47.077751,17.662333 47.1366718,17.7210118 47.1366718,17.8383695 C47.1366718,17.9557272 47.0188301,18.2491214 46.7831468,18.7185522 C46.5474634,19.187983 46.3117801,19.6574138 46.0760967,20.1268445 C45.8404133,20.5962753 45.4868883,21.1243849 45.0155216,21.8872099 C44.0727881,23.3541811 43.0711339,24.0583273 41.9516379,24.0583273 C41.2445878,24.0583273 40.7143003,23.764933 40.3018544,23.1781446 C40.1250919,22.8847503 40.0072502,22.5326773 40.0072502,22.0632465 C40.0072502,21.5938157 40.1250919,21.0657061 40.3018544,20.3615599 C40.5375378,19.7160926 41.0678253,18.6011945 42.0105587,17.1342233 C42.2462421,16.7821502 42.3640838,16.488756 42.3640838,16.2540406 C42.3640838,16.0193252 42.1873213,15.9019675 41.8337962,15.9019675 C41.4802712,15.9019675 40.832142,16.3713983 39.8304877,17.3102599 C38.3574667,18.6598734 36.8844457,20.713633 35.4703455,23.41286 C35.3525039,23.7062542 34.940058,23.8822907 34.2919287,23.8822907 C33.7616412,23.9409696 33.4081161,23.9996484 33.2313536,24.0583273 C37.1790499,15.9019675 40.0072502,10.2101194 41.7748754,6.9827828 C42.1873213,6.27863663 42.5408463,5.75052701 42.8354505,5.45713277 C43.1300547,5.16373854 43.4835797,5.04638084 43.8960256,5.04638084 C44.0138673,5.04638084 44.1906298,5.04638084 44.5441549,5.10505969 C44.8976799,5.16373854 45.1333633,5.16373854 45.3101258,5.16373854 C44.6619965,5.80920585 43.6014214,7.56957127 41.9516379,10.4448348 C40.3607752,13.3200983 38.8288334,16.3127195 37.3558124,19.3053407 C38.3574667,18.0730849 39.1823584,17.1342233 40.0072502,16.4300772 C40.832142,15.725931 41.7159545,15.0804637 42.8354505,14.4936752 C43.9549465,13.9068867 44.7798382,13.5548137 45.3101258,13.5548137 C45.4279675,13.5548137 45.5458091,13.5548137 45.6636508,13.6134925 C43.012213,18.2491214 41.7748754,21.1243849 41.7748754,22.5326773 Z" id="Path"></path>
                                    <path d="M47.7258802,23.2368234 C48.1383261,23.2368234 48.550772,23.0607869 48.9632178,22.6500349 C49.7291888,21.8872099 50.730843,20.3028811 51.9092598,17.9557272 C52.0271015,17.662333 52.203864,17.5449753 52.3217057,17.662333 C52.3806265,17.7210118 52.3806265,17.7796906 52.3806265,17.8383695 C52.3806265,17.8970483 52.3217057,18.1317637 52.1449432,18.5425157 C51.9681807,18.8945887 51.850339,19.2466618 51.6735765,19.5400561 C51.5557348,19.8334503 51.2611306,20.3028811 50.9076056,20.9483484 C50.4951597,21.5938157 50.2005555,22.1219253 49.8470304,22.4739984 C49.0221387,23.4715388 48.1972469,23.9409696 47.431276,23.9409696 C46.6653051,23.9409696 46.1350175,23.7062542 45.7814925,23.2368234 C45.4279675,22.7673926 45.3101258,22.2979619 45.3101258,21.7111734 C45.3101258,21.1243849 45.4279675,20.5375965 45.7225717,19.8921291 L47.7258802,14.8457483 C47.784801,14.7283906 47.784801,14.5523541 47.784801,14.3763175 C47.784801,14.1416021 47.6669594,13.9068867 47.431276,13.5548137 L49.1399804,13.4961348 C49.6113471,13.4961348 49.9059513,13.5548137 49.9648721,13.7308502 C50.023793,13.9068867 49.9648721,14.200281 49.7881096,14.5523541 L47.3134343,20.3615599 C46.9599093,21.1243849 46.7831468,21.7698522 46.7831468,22.2979619 C46.7831468,22.9434292 47.1366718,23.2368234 47.7258802,23.2368234 Z M50.7897639,11.9118059 C50.4951597,12.1465213 50.2005555,12.263879 49.8470304,12.263879 C49.4935054,12.263879 49.1989012,12.1465213 49.0221387,11.9118059 C48.7864553,11.6770906 48.7275345,11.3836963 48.7864553,11.0316232 C48.8453762,10.6795502 49.0221387,10.3861559 49.3167429,10.1514405 C49.6113471,9.91672515 49.9059513,9.79936745 50.2594763,9.79936745 C50.6130014,9.79936745 50.9076056,9.91672515 51.1432889,10.1514405 C51.3789723,10.3861559 51.4378931,10.6795502 51.3789723,11.0316232 C51.2611306,11.3250175 51.0843681,11.6184117 50.7897639,11.9118059 Z" id="Shape"></path>
                                </g>
                                <g id="Group" transform="translate(93.330610, 29.280745)" fill="#FFFFFF" fill-rule="nonzero">
                                    <path d="M28.0463197,4.16619814 C28.0463197,3.46205197 27.6927947,2.75790581 27.0446654,2.11243849 C26.101932,1.23225579 24.7467527,0.762825011 23.0969692,0.762825011 C21.6239482,0.762825011 19.9741647,1.05621925 18.2065395,1.70168656 C17.263806,2.05375965 16.4389143,2.46451157 15.7907851,3.05130004 C14.7302099,3.93148275 14.1999224,4.8703443 14.1999224,5.75052701 C14.1999224,6.9827828 14.9658933,8.03900204 16.556756,9.03654244 C17.1459644,9.38861552 18.3243812,9.97540399 20.0330855,10.738229 C21.8007107,11.5597329 23.0380483,12.2052002 23.8629401,12.674631 C25.1002777,13.437456 25.9251695,14.200281 26.3965362,15.0804637 C26.8679029,15.9019675 27.1035863,16.7234714 27.1035863,17.4276176 C27.1035863,18.4838368 26.7500613,19.5400561 26.101932,20.5962753 C24.9235152,22.5326773 23.15589,24.175685 20.7990564,25.5252985 C18.1476186,27.1096273 14.9069725,27.9311312 11.1360387,27.9311312 C7.48294665,27.9311312 4.65474634,26.9922696 2.47467527,25.1732254 C0.824891757,23.764933 0,21.9458888 0,19.7747714 C0,18.3664791 0.530287558,16.8408291 1.53194183,15.1391425 C2.53359611,13.437456 3.82985458,12.263879 5.30287558,11.5597329 C5.59747978,11.4423752 5.83316314,11.3836963 6.00992566,11.4423752 C6.18668817,11.501054 6.00992566,11.6770906 5.59747978,12.0291636 C4.71366718,12.7333098 4.0066171,13.4961348 3.47632955,14.3763175 C2.29791275,16.1953618 1.70870435,18.1904426 1.70870435,20.3028811 C1.70870435,21.7111734 2.12115023,22.9434292 2.88712115,23.9996484 C4.3012213,25.8773715 6.71697573,26.9335908 10.1933053,27.1683062 C10.6057512,27.226985 11.1949596,27.226985 11.9609305,27.226985 C12.7269014,27.226985 13.7874765,27.1096273 15.1426558,26.8162331 C16.4978351,26.5228389 17.7940936,26.0534081 19.0314312,25.4666196 C21.682869,24.0583273 23.4504942,22.239283 24.2164651,20.0094868 C24.4521485,19.3640195 24.5699902,18.7185522 24.5699902,18.0730849 C24.5699902,16.6647926 23.9218609,15.4325368 22.6845233,14.3763175 C21.9774732,13.8482079 20.6222939,13.1440617 18.5011437,12.2052002 C16.3799935,11.3250175 14.9658933,10.6208713 14.2588432,10.1514405 C12.6679805,9.09522129 11.8430888,7.80428665 11.8430888,6.33731548 C11.8430888,5.04638084 12.5501389,3.81412506 13.964239,2.58186927 C16.0264684,0.821503858 18.9135896,0 22.6845233,0 C24.4521485,0 25.8662487,0.234715388 26.9857446,0.762825011 C28.1052406,1.29093463 28.7533698,2.05375965 29.047974,3.10997889 C29.1068948,3.34469428 29.1068948,3.52073082 29.1068948,3.75544621 C29.1068948,4.57695007 28.7533698,5.28109623 27.9873989,5.92656355 C27.4571113,6.33731548 26.7500613,6.68938856 25.9251695,6.92410395 C25.5716445,7.04146164 25.3359611,6.9827828 25.2770403,6.80674625 C25.2181194,6.51335202 25.5127236,6.39599433 26.0430112,6.33731548 C27.0446654,6.21995778 27.6338738,5.69184816 27.8695572,4.8703443 C28.0463197,4.57695007 28.0463197,4.34223468 28.0463197,4.16619814 Z" id="Path"></path>
                                    <path d="M28.7533698,23.3541811 C28.7533698,22.4739984 29.1658157,21.4177792 29.9317866,20.1268445 C29.5782616,20.1268445 29.5193407,19.950808 29.6371824,19.6574138 L30.16747,18.6011945 C30.87452,17.251581 31.4637284,16.1366829 31.9350951,15.1978214 C32.1707785,14.7870694 32.5243035,14.5523541 33.1724328,14.5523541 L35.0578997,14.5523541 C34.2919287,15.0804637 33.5848787,16.1366829 32.8189077,17.662333 C32.0529368,19.187983 31.4637284,20.4202388 31.0512826,21.3004215 C30.6388367,22.1806042 30.4031533,22.8260715 30.4031533,23.2955023 C30.4031533,23.764933 30.4620742,24.0583273 30.6388367,24.2343638 C30.8155992,24.4104004 30.9923617,24.5277581 31.2869659,24.5277581 C31.6994118,24.5277581 32.2296993,24.1170061 32.9367494,23.2955023 C34.0562454,22.0045676 35.5881872,19.3053407 37.5914958,15.1978214 C37.8271791,14.7870694 38.239625,14.5523541 38.8288334,14.5523541 L40.4786169,14.5523541 C40.0072502,14.9044271 39.6537252,15.2565002 39.4180418,15.6085733 C39.1823584,15.9606464 38.8288334,16.6647926 38.3574667,17.6036541 C37.120129,20.0681657 36.413079,21.7111734 36.2952373,22.5326773 C36.2363165,22.8260715 36.1773956,23.0607869 36.1773956,23.3541811 C36.1773956,23.9996484 36.413079,24.3517215 36.8844457,24.4104004 C38.0039416,24.4104004 39.359121,22.7087138 41.0089045,19.2466618 C41.1267462,18.9532676 41.2445878,18.8359099 41.3624295,18.8945887 C41.4802712,18.9532676 41.539192,19.0119464 41.539192,19.1293041 C41.539192,19.2466618 41.4213504,19.4813772 41.2445878,19.8334503 C41.0678253,20.1855234 40.8910628,20.5375965 40.7143003,20.8896695 C40.5375378,21.2417426 40.2429336,21.7111734 39.8894085,22.3566407 C39.5358835,22.9434292 39.1823584,23.4715388 38.8877542,23.8236119 C38.0628625,24.7037946 37.2968916,25.1732254 36.5309207,25.1732254 C35.7649497,25.1732254 35.2346622,24.8211523 34.940058,24.175685 C34.8222163,23.8822907 34.7632955,23.4715388 34.7632955,23.002108 C34.7632955,22.5326773 34.8811371,21.9458888 35.0578997,21.2417426 C33.5259578,23.8822907 32.1707785,25.2319042 30.87452,25.2319042 C29.7550241,25.2319042 29.1068948,24.7624734 28.9301323,23.8236119 C28.7533698,23.6475753 28.7533698,23.5302177 28.7533698,23.3541811 Z" id="Path"></path>
                                    <path d="M43.5425006,24.5864369 C43.8371048,24.6451157 44.0138673,24.6451157 44.0727881,24.6451157 C44.8976799,24.6451157 45.7225717,24.175685 46.5474634,23.1781446 C46.9599093,22.6500349 47.784801,21.3004215 48.904297,19.1293041 C48.9632178,19.0119464 49.0221387,18.9532676 49.1399804,18.9532676 C49.3167429,18.9532676 49.4345846,19.0119464 49.4345846,19.187983 C49.4345846,19.2466618 49.3756637,19.3640195 49.3167429,19.5400561 C49.1989012,19.7160926 49.1399804,19.950808 49.0810595,20.1268445 C49.0221387,20.3028811 48.8453762,20.5962753 48.6686136,21.0070272 C48.4918511,21.4177792 48.3150886,21.6524945 48.1972469,21.8872099 C48.0794052,22.1219253 47.9026427,22.4153196 47.6669594,22.7087138 C47.431276,23.0607869 47.2545135,23.2955023 47.0188301,23.4715388 L46.3707009,24.175685 C46.0171759,24.5277581 45.60473,24.7624734 45.1333633,24.93851 C44.3673923,25.1732254 43.6014214,25.2319042 42.8943713,24.9971888 C42.4230046,25.2319042 42.0105587,25.2905831 41.5981129,25.2905831 C40.1250919,25.2905831 39.2412793,24.7037946 38.9466751,23.5302177 C38.8877542,23.2368234 38.8288334,22.9434292 38.8288334,22.5326773 C38.8288334,22.1219253 38.9466751,21.7698522 39.2412793,21.4177792 C39.4769626,21.0657061 39.7715668,20.8896695 40.066171,20.8896695 C41.1267462,18.8945887 42.0105587,17.0755445 42.7765297,15.4912156 C43.6014214,13.7308502 44.5441549,12.8506675 45.6636508,12.8506675 C45.958255,12.8506675 46.2528592,12.9093463 46.5474634,13.026704 C46.8420676,13.1440617 46.9599093,13.3200983 46.8420676,13.4961348 C46.7831468,13.6721714 46.6063842,13.6721714 46.3707009,13.6134925 C46.1350175,13.4961348 45.958255,13.437456 45.7814925,13.437456 C45.60473,13.437456 45.4868883,13.4961348 45.3690466,13.5548137 C44.6619965,13.9068867 44.3084715,14.6110329 44.3084715,15.6672522 C44.3084715,16.2540406 44.3673923,16.7234714 44.5441549,17.0755445 C44.7209174,17.4276176 44.8976799,17.8383695 45.0744424,18.3078003 C45.5458091,19.3640195 45.7814925,20.2442022 45.7814925,20.9483484 C45.7814925,21.6524945 45.5458091,22.2979619 45.1333633,22.9434292 C44.6619965,23.6475753 44.1906298,24.175685 43.5425006,24.5864369 Z M40.1840127,23.5302177 C40.1840127,23.6475753 40.1840127,23.764933 40.2429336,23.9409696 C40.4196961,24.4690792 40.7732211,24.7624734 41.4213504,24.7624734 C41.6570337,24.7624734 41.8927171,24.7037946 42.0694796,24.6451157 C41.3035087,24.175685 40.8910628,23.41286 40.832142,22.2979619 C40.3607752,22.7087138 40.1840127,23.0607869 40.1840127,23.5302177 Z M42.4819255,24.3517215 C43.3657381,23.6475753 43.8371048,22.5326773 43.8371048,20.9483484 C43.8371048,20.3028811 43.7781839,19.4226984 43.6014214,18.3078003 C43.4246589,17.1929022 43.3657381,16.4300772 43.3657381,16.0193252 C43.3657381,15.6085733 43.3657381,15.3738579 43.4246589,15.1978214 C41.8337962,18.3078003 40.8910628,20.2442022 40.4786169,20.9483484 C40.8910628,20.9483484 41.1267462,21.2417426 41.1267462,21.8872099 C41.185667,23.1194657 41.6570337,23.9409696 42.4819255,24.3517215 Z" id="Shape"></path>
                                    <path d="M54.3839351,23.764933 C54.3839351,24.3517215 54.6196185,24.6451157 55.0320643,24.6451157 C56.0337186,24.6451157 57.3888979,22.8260715 59.1565231,19.187983 C59.2743648,18.8945887 59.4511273,18.777231 59.568969,18.8359099 C59.6868107,18.8945887 59.7457315,18.9532676 59.7457315,19.0706253 C59.7457315,19.187983 59.6278898,19.4813772 59.3922065,19.950808 C59.1565231,20.4202388 58.9208398,20.8896695 58.6851564,21.3591003 C58.449473,21.8285311 58.095948,22.3566407 57.6245813,23.1194657 C56.6818478,24.5864369 55.6801936,25.2905831 54.5606976,25.2905831 C53.8536475,25.2905831 53.32336,24.9971888 52.9109141,24.4104004 C52.7341516,24.1170061 52.6163099,23.764933 52.6163099,23.2955023 C52.6163099,22.8260715 52.7341516,22.2979619 52.9109141,21.5938157 C53.1465975,20.9483484 53.676885,19.8334503 54.6196185,18.3664791 C54.8553018,18.014406 54.9731435,17.7210118 54.9731435,17.4862964 C54.9731435,17.251581 54.796381,17.1342233 54.4428559,17.1342233 C54.0893309,17.1342233 53.4412017,17.6036541 52.4395474,18.5425157 C50.9665264,19.8921291 49.4935054,21.9458888 48.0794052,24.6451157 C47.9615636,24.93851 47.5491177,25.1145465 46.9009884,25.1145465 C46.3707009,25.1732254 46.0171759,25.2319042 45.8404133,25.2905831 C49.7881096,17.1342233 52.6163099,11.4423752 54.3839351,8.21503858 C54.796381,7.51089242 55.149906,6.9827828 55.4445102,6.68938856 C55.7391144,6.39599433 56.0926395,6.27863663 56.5050853,6.27863663 C56.622927,6.27863663 56.7996895,6.27863663 57.1532146,6.33731548 C57.5067396,6.39599433 57.742423,6.39599433 57.9191855,6.39599433 C57.2710562,7.04146164 56.2104811,8.80182705 54.5606976,11.6770906 C52.9698349,14.5523541 51.4378931,17.5449753 49.9648721,20.5375965 C50.9665264,19.3053407 51.7914181,18.3664791 52.6163099,17.662333 C53.3822808,16.9581868 54.3250143,16.3127195 55.4445102,15.725931 C56.5640062,15.1391425 57.3888979,14.7870694 57.9191855,14.7870694 C58.0370272,14.7870694 58.1548688,14.7870694 58.2727105,14.8457483 C55.6801936,19.4813772 54.3839351,22.3566407 54.3839351,23.764933 Z" id="Path"></path>
                                    <path d="M60.3938608,24.4690792 C60.8063066,24.4690792 61.2187525,24.2930427 61.6311984,23.8822907 C62.3971693,23.1194657 63.3988236,21.5351369 64.5772404,19.187983 C64.6950821,18.8945887 64.8718446,18.777231 64.9896863,18.8945887 C65.0486071,18.9532676 65.0486071,19.0119464 65.0486071,19.0706253 C65.0486071,19.1293041 64.9896863,19.3640195 64.8129237,19.7747714 C64.6361612,20.1268445 64.5183195,20.4789176 64.341557,20.7723118 C64.1647945,21.0657061 63.9291111,21.5351369 63.5755861,22.1806042 C63.1631402,22.8260715 62.868536,23.3541811 62.515011,23.7062542 C61.6901192,24.7037946 60.8652275,25.1732254 60.0992566,25.1732254 C59.3332856,25.1732254 58.8029981,24.93851 58.449473,24.4690792 C58.095948,23.9996484 57.9781063,23.5302177 57.9781063,22.9434292 C57.9781063,22.3566407 58.095948,21.7698522 58.3905522,21.1243849 L60.3938608,16.0780041 C60.4527816,15.9606464 60.4527816,15.7846098 60.4527816,15.6085733 C60.4527816,15.3738579 60.3349399,15.1391425 60.0992566,14.7870694 L61.8079609,14.7283906 C62.2793276,14.7283906 62.5739318,14.7870694 62.6328527,14.963106 C62.6917735,15.1391425 62.6328527,15.4325368 62.4560901,15.7846098 L59.9814149,21.5938157 C59.6278898,22.3566407 59.4511273,23.002108 59.4511273,23.5302177 C59.3922065,24.175685 59.7457315,24.4690792 60.3938608,24.4690792 Z M63.3988236,13.1440617 C63.1042194,13.3787771 62.8096152,13.4961348 62.4560901,13.4961348 C62.1025651,13.4961348 61.8079609,13.3787771 61.6311984,13.1440617 C61.4544359,12.9093463 61.3365942,12.6159521 61.395515,12.263879 C61.4544359,11.9118059 61.6311984,11.6184117 61.9258026,11.3836963 C62.2204068,11.1489809 62.515011,11.0316232 62.868536,11.0316232 C63.2220611,11.0316232 63.5166653,11.1489809 63.7523486,11.3836963 C63.988032,11.6184117 64.0469528,11.9118059 63.988032,12.263879 C63.8701903,12.5572733 63.6934278,12.8506675 63.3988236,13.1440617 Z" id="Shape"></path>
                                </g>
                            </g>
                            <g id="Layer_27" transform="translate(258.848853, 221.870445)">
                                <path d="M258.092356,11.7987094 L245.746253,11.7987094 C221.171627,11.7987094 201.123907,31.8565153 201.123907,56.5748115 C201.123907,64.3619596 194.774482,70.7332627 187.014074,70.7332627 C179.253666,70.7332627 172.904241,64.3619596 172.904241,56.5748115 L172.904241,42.2393796 C172.904241,18.9369285 154.03234,0 130.809907,0 C107.587474,0 88.715573,18.9369285 88.715573,42.2393796 L88.715573,88.5493139 C88.715573,100.053055 79.3678088,109.433029 67.9035698,109.433029 C56.4393307,109.433029 47.0915666,100.053055 47.0915666,88.5493139 C47.0915666,66.662708 29.3366938,48.8466568 7.5252441,48.8466568 L0,48.8466568 L0,64.3029661 L7.58403507,64.3029661 C20.9295851,64.3029661 31.7471235,75.1577787 31.7471235,88.5493139 C31.7471235,108.60712 47.9734311,124.889339 67.9623607,124.889339 C87.9512904,124.889339 104.177598,108.60712 104.177598,88.5493139 L104.177598,42.2393796 C104.177598,27.4909928 116.170956,15.4563093 130.868698,15.4563093 C145.56644,15.4563093 157.559798,27.4909928 157.559798,42.2393796 L157.559798,56.5748115 C157.559798,72.9160239 170.787766,86.189572 187.072865,86.189572 C203.357964,86.189572 216.585932,72.9160239 216.585932,56.5748115 C216.585932,40.4105796 229.696318,27.2550187 245.805044,27.2550187 L258.151147,27.2550187 L258.151147,11.7987094 L258.092356,11.7987094 L258.092356,11.7987094 Z" id="Path" fill="#F2F2F2" fill-rule="nonzero"></path>
                            </g>
                        </g>
                    </g>
                </g>
            </g>
        </g>
    </g>
</svg>